<?xml version="1.0" encoding="UTF-8"?>
<svg version="1.1" xmlns="http://www.w3.org/2000/svg" width="1254" height="1254">
<path d="M0 0 C413.82 0 827.64 0 1254 0 C1254 413.82 1254 827.64 1254 1254 C840.18 1254 426.36 1254 0 1254 C0 840.18 0 426.36 0 0 Z " fill="#FDFCFC" transform="translate(0,0)"/>
<path d="M0 0 C0.74715397 0.00125633 1.49430794 0.00251266 2.26410294 0.00380707 C23.89242373 0.04414039 45.29154882 0.31839849 66.75 3.25 C68.03841797 3.41951172 69.32683594 3.58902344 70.65429688 3.76367188 C94.06117731 6.87433865 94.06117731 6.87433865 96.9375 8.3125 C100.47158878 8.76894881 104.01094046 9.14592118 107.5546875 9.51953125 C112.10841743 10.19263079 116.29399925 11.71442618 120.63134766 13.21801758 C126.56963431 15.18385269 132.63475498 16.68094077 138.6875 18.25 C148.4961363 20.82538859 158.26183205 23.44155987 167.89111328 26.63671875 C170.34891913 27.44836354 172.81326194 28.23886842 175.27734375 29.03125 C177.16433484 29.64499665 179.05105572 30.2595747 180.9375 30.875 C181.81092041 31.15609619 182.68434082 31.43719238 183.58422852 31.72680664 C188.2386309 33.26485697 192.54579126 35.02729568 196.88769531 37.29663086 C199.94681091 38.81270756 203.11818991 40.00841408 206.29492188 41.25390625 C222.27178564 47.65409854 237.54740467 55.52626671 252.52587891 63.96484375 C254.64405664 65.14851869 256.77416803 66.30115948 258.91796875 67.4375 C283.03796195 80.35181874 306.41141591 96.88892631 327.0390625 114.8125 C329.74963825 117.15046291 332.51446791 119.39313862 335.3125 121.625 C347.40499006 131.52669656 358.38258098 142.66226483 369.4375 153.6875 C370.00389191 154.25121307 370.57028381 154.81492615 371.15383911 155.39572144 C377.29917764 161.5190133 383.34912516 167.66837745 388.9375 174.3125 C389.88517957 175.41556832 390.83308754 176.51844048 391.78125 177.62109375 C392.66734687 178.66348467 393.55277496 179.7064445 394.4375 180.75 C394.87191406 181.25853516 395.30632813 181.76707031 395.75390625 182.29101562 C399.62433413 186.85541235 403.29038677 191.5686851 406.9375 196.3125 C407.51064941 197.0562085 408.08379883 197.79991699 408.67431641 198.56616211 C430.9659557 227.61426873 449.63002202 258.57478375 465.9375 291.3125 C466.62996826 292.70154541 466.62996826 292.70154541 467.33642578 294.11865234 C475.68001932 310.98350014 482.53003243 328.34023691 488.27124023 346.25195312 C488.9544161 348.36481657 489.65895002 350.46963341 490.3671875 352.57421875 C505.22627222 397.06555466 505.22627222 397.06555466 507.51171875 417.75 C507.99430705 421.78780301 508.68245725 425.75574498 509.4375 429.75 C509.6746875 431.00683594 509.911875 432.26367188 510.15625 433.55859375 C510.6956219 436.15027573 511.28533522 438.6532918 511.96875 441.203125 C514.04190357 449.36074783 514.22681687 457.9533209 514.9375 466.3125 C515.02338379 467.30657364 515.10926758 468.30064728 515.19775391 469.32484436 C516.69682959 486.9317834 517.4141233 504.45508362 517.4375 522.125 C517.44051117 523.4133374 517.44352234 524.7016748 517.44662476 526.02905273 C517.44311563 550.04920054 515.30818739 573.31557586 511.32672119 596.98156738 C510.95923646 599.18232664 510.60590941 601.38473869 510.25927734 603.58886719 C507.85383526 618.79126116 504.59394758 633.68144205 500.65722656 648.55786133 C499.88439252 651.51576043 499.14732711 654.48127641 498.4140625 657.44921875 C482.62680799 720.75091818 452.60716106 781.6834236 412.9375 833.3125 C412.44411133 833.95751465 411.95072266 834.6025293 411.44238281 835.26708984 C402.01906396 847.54819532 392.02869282 859.27232662 381.49487305 870.61157227 C379.55114573 872.73446742 377.64414429 874.88904246 375.73046875 877.0390625 C370.94448391 882.36384376 365.94827148 887.45001821 360.875 892.5 C360.02873047 893.35013672 359.18246094 894.20027344 358.31054688 895.07617188 C353.34837589 900.03069109 348.27302903 904.76433079 342.9375 909.3125 C341.81960461 910.28564575 340.70238946 911.25957361 339.5859375 912.234375 C333.54849562 917.46391327 327.44377154 922.59596283 321.1875 927.5625 C320.59114746 928.04041992 319.99479492 928.51833984 319.38037109 929.01074219 C315.17668759 932.3125 315.17668759 932.3125 312.9375 932.3125 C313.90255301 928.27989767 315.24276498 924.40532773 316.625 920.5 C317.02537476 919.36558472 317.02537476 919.36558472 317.43383789 918.20825195 C319.13975884 913.42296094 320.95632797 908.70384111 322.875 904 C328.78737184 889.40479936 333.76098623 874.49189209 337.9375 859.3125 C338.25396484 858.16265625 338.57042969 857.0128125 338.89648438 855.828125 C339.79973271 852.53537691 340.69417298 849.24031348 341.58352661 845.94378662 C342.11096346 843.98950868 342.6412583 842.03600279 343.17163086 840.08251953 C347.80103866 822.74691307 352.44678627 802.00667624 344.48828125 784.96875 C338.54780474 774.79362651 330.28364742 766.91502954 320.75 760.125 C319.96665283 759.56530518 319.18330566 759.00561035 318.3762207 758.42895508 C304.80377953 748.87239536 290.29607548 740.91268796 275.76953125 732.92578125 C274.42104379 732.18325165 273.07261406 731.44061721 271.72424316 730.69787598 C268.46265819 728.90154484 265.20030082 727.10662199 261.9375 725.3125 C261.93511165 724.08867709 261.93272329 722.86485418 261.93026257 721.60394573 C261.87293783 692.57135006 261.80023237 663.53882177 261.70851372 634.50631566 C261.69724517 630.93511899 261.68610678 627.36392193 261.67504883 623.79272461 C261.6717433 622.72625553 261.6717433 622.72625553 261.668371 621.63824163 C261.63297124 610.11692958 261.60812226 598.5956176 261.58715298 587.07427128 C261.56541221 575.25767349 261.53237831 563.44114645 261.48879844 551.62460881 C261.4646376 544.98517434 261.44611633 538.34579893 261.43988609 531.70631981 C261.43386296 525.46257697 261.41396403 519.21903518 261.38322449 512.97536659 C261.37439962 510.67874672 261.3707308 508.38210063 261.37249184 506.08546448 C261.37413253 502.95962874 261.35754852 499.83441475 261.33622742 496.70866394 C261.34349878 495.33270319 261.34349878 495.33270319 261.35091704 493.92894524 C261.3414605 493.09392395 261.33200396 492.25890266 261.32226086 491.39857769 C261.32036225 490.67672934 261.31846365 489.95488099 261.31650752 489.21115845 C260.8221355 486.73457537 259.91114696 485.84541318 257.9375 484.3125 C252.00465971 483.20063535 248.33193803 486.1477567 243.625 489.3125 C241.92198748 490.42334954 240.21885643 491.53401739 238.515625 492.64453125 C237.61134766 493.24088379 236.70707031 493.83723633 235.77539062 494.45166016 C231.87211703 497.01108474 227.93219269 499.51133026 223.9934082 502.015625 C213.16145196 508.90845678 202.4054343 515.91440548 191.66967773 522.95581055 C184.28981297 527.7905136 176.87602921 532.56862364 169.4375 537.3125 C158.52175879 544.27465088 147.67977073 551.34441879 136.8515625 558.44140625 C132.1835881 561.50021593 127.50381748 564.53966293 122.8125 567.5625 C114.45073412 572.95649444 106.13248624 578.4168979 97.8125 583.875 C97.1389447 584.31662476 96.4653894 584.75824951 95.77142334 585.21325684 C93.78208017 586.51781772 91.79323611 587.82313457 89.8046875 589.12890625 C89.15772919 589.55360199 88.51077087 589.97829773 87.84420776 590.41586304 C84.46821148 592.63568252 81.10165041 594.86853402 77.74707031 597.12060547 C77.06726105 597.57652573 76.38745178 598.03244598 75.68704224 598.50218201 C74.39481426 599.37005273 73.10393725 600.2399397 71.81466675 601.11219788 C66.24026492 604.85639421 62.83163879 607.06458787 55.9375 606.3125 C52.59780167 603.08412495 51.96152265 599.96640381 51.79273987 595.37208557 C51.77816122 593.68632513 51.76897273 592.00051316 51.76391602 590.31469727 C51.757229 589.39409515 51.75054199 588.47349304 51.74365234 587.5249939 C51.72959795 585.52466215 51.71770514 583.52431433 51.70770454 581.52395821 C51.69130566 578.35949481 51.66806887 575.19515075 51.64280701 572.03074646 C51.57199524 563.03317193 51.51186424 554.03554908 51.46069336 545.0378418 C51.42892408 539.53597282 51.3876554 534.03424161 51.34049797 528.53248405 C51.3244676 526.43412691 51.31215083 524.33573803 51.30359077 522.23733711 C51.29145369 519.30464794 51.26731101 516.37228349 51.24047852 513.43969727 C51.2395948 512.13585838 51.2395948 512.13585838 51.23869324 510.80567932 C51.22411575 509.6049176 51.22411575 509.6049176 51.20924377 508.37989807 C51.20289587 507.34042951 51.20289587 507.34042951 51.19641972 506.27996159 C50.8923402 503.96934274 50.07440299 502.33158325 48.9375 500.3125 C43.5592134 499.79017778 40.45300708 501.39738511 36.125 504.3125 C35.44832275 504.75110352 34.77164551 505.18970703 34.07446289 505.64160156 C32.5442184 506.63399202 31.01766216 507.63208465 29.49414062 508.63476562 C24.64615851 511.81613815 19.75781346 514.93496345 14.875 518.0625 C13.80314453 518.75029541 12.73128906 519.43809082 11.62695312 520.14672852 C1.86153684 526.39749968 -8.02041562 532.44148449 -17.94775391 538.43066406 C-21.36850268 540.49737762 -24.78444158 542.57187845 -28.19921875 544.6484375 C-39.44184133 551.48443824 -50.68757754 558.31462078 -61.98046875 565.06738281 C-66.5718603 567.81317279 -71.16131697 570.56218637 -75.75 573.3125 C-77.33167969 574.26032349 -77.33167969 574.26032349 -78.9453125 575.22729492 C-84.77662123 578.72616714 -90.59804691 582.24028812 -96.40625 585.77734375 C-97.02023148 586.1510611 -97.63421295 586.52477844 -98.26679993 586.90982056 C-101.22793262 588.71260564 -104.18764756 590.51761738 -107.14526367 592.32617188 C-109.33106904 593.65836154 -111.52137311 594.98320046 -113.71630859 596.30029297 C-116.06632761 597.71345923 -118.39839863 599.14406856 -120.72509766 600.59423828 C-121.94773324 601.3358007 -123.17086493 602.07654591 -124.39453125 602.81640625 C-125.48096924 603.48615479 -126.56740723 604.15590332 -127.68676758 604.84594727 C-131.92430819 606.68690383 -134.48310956 606.71783325 -139.0625 606.3125 C-141.68517144 603.94363547 -142.39920485 601.70470755 -143.0625 598.3125 C-143.17296074 596.08151125 -143.22865007 593.84761376 -143.25195312 591.61401367 C-143.26024643 590.94811722 -143.26853973 590.28222076 -143.27708435 589.59614563 C-143.29445851 588.15027907 -143.30963249 586.70438478 -143.32286072 585.25847435 C-143.34406949 582.94562844 -143.37109492 580.63291224 -143.39953613 578.32014465 C-143.4591593 573.38014909 -143.51104202 568.44008624 -143.5625 563.5 C-143.79762684 538.08426186 -143.79762684 538.08426186 -144.40625 512.67578125 C-144.42683472 511.74678513 -144.44741943 510.817789 -144.46862793 509.86064148 C-144.50153931 509.02531387 -144.53445068 508.18998627 -144.56835938 507.3293457 C-144.59136108 506.61817093 -144.61436279 505.90699615 -144.63806152 505.17427063 C-145.19055968 502.75077488 -146.1236521 501.83014386 -148.0625 500.3125 C-153.11276019 499.35659584 -156.02774961 501.15777622 -160.09992981 503.84199524 C-160.84683578 504.35433212 -161.59374176 504.86666901 -162.36328125 505.39453125 C-163.15792282 505.92334396 -163.95256439 506.45215668 -164.77128601 506.99699402 C-167.31469833 508.69354022 -169.84495166 510.408604 -172.375 512.125 C-174.03364 513.23761902 -175.69313833 514.34895961 -177.35351562 515.45898438 C-179.82975088 517.11519435 -182.3051892 518.77249513 -184.77735901 520.43476868 C-196.5428908 528.34330392 -208.46536138 536.00764726 -220.5 543.5 C-221.50240723 544.12527588 -222.50481445 544.75055176 -223.53759766 545.39477539 C-237.04465928 553.8087191 -250.60643296 562.13459867 -264.17724609 570.44522095 C-270.17694887 574.119739 -276.16936751 577.80570161 -282.15087891 581.50976562 C-284.01616425 582.66465972 -285.88289661 583.81722194 -287.75146484 584.96679688 C-290.11309538 586.42392429 -292.46432973 587.89630929 -294.8125 589.375 C-295.4732251 589.77952393 -296.1339502 590.18404785 -296.81469727 590.60083008 C-301.86906452 593.82401077 -306.3467324 597.8809648 -309.0625 603.3125 C-309.43064721 607.13852105 -309.51222888 610.98602243 -309.65185547 614.82641602 C-309.69509886 615.99330491 -309.73834225 617.16019381 -309.78289604 618.36244297 C-310.14726021 629.49711254 -309.98537258 640.59220776 -309.70975113 651.72642326 C-309.54662721 658.85748796 -309.46559705 665.9901365 -309.36744881 673.12233639 C-309.27733859 679.3391426 -309.15935237 685.55323314 -308.98583984 691.76831055 C-308.81739345 697.86096334 -308.72299856 703.95082577 -308.67827988 710.04559517 C-308.64824928 712.34524404 -308.5916926 714.6447173 -308.50711441 716.94300652 C-307.89018624 734.26017299 -307.89018624 734.26017299 -311.48296356 739.3083992 C-314.91094053 742.7164842 -318.78552768 745.07110232 -323.06978989 747.25636482 C-326.4255639 749.03492306 -329.49803678 751.22783444 -332.625 753.375 C-333.86568419 754.19758441 -335.10769404 755.01817615 -336.3515625 755.8359375 C-342.37415045 759.83300562 -348.25321437 764.01231 -354.0625 768.3125 C-354.86816406 768.89386719 -355.67382812 769.47523438 -356.50390625 770.07421875 C-362.92606372 775.10714292 -367.17536334 781.42582202 -368.40820312 789.60644531 C-369.8467626 805.04980435 -366.30685548 819.57203708 -362.0625 834.3125 C-361.82273437 835.14700684 -361.58296875 835.98151367 -361.3359375 836.84130859 C-359.21342303 844.1069562 -356.83620254 851.26947101 -354.0625 858.3125 C-353.71703125 859.24835937 -353.3715625 860.18421875 -353.015625 861.1484375 C-350.06624129 869.05814835 -346.65822677 876.68401925 -343.02148438 884.29296875 C-342.01703382 886.40824752 -341.0301948 888.53107132 -340.046875 890.65625 C-336.63006213 898.02174196 -333.14003798 905.259874 -329.09375 912.30859375 C-328.0625 914.3125 -328.0625 914.3125 -328.0625 916.3125 C-328.7225 916.3125 -329.3825 916.3125 -330.0625 916.3125 C-330.0625 915.6525 -330.0625 914.9925 -330.0625 914.3125 C-330.59617187 914.09722656 -331.12984375 913.88195312 -331.6796875 913.66015625 C-334.94167827 911.81525983 -337.48941683 909.3151629 -340.1875 906.75 C-341.35619956 905.65303689 -342.52547523 904.55668724 -343.6953125 903.4609375 C-344.26926758 902.92178711 -344.84322266 902.38263672 -345.43457031 901.82714844 C-347.60940474 899.80365222 -349.83469008 897.83985531 -352.0625 895.875 C-360.2422819 888.53588084 -368.15091215 880.77330648 -375.265625 872.390625 C-377.13197085 870.23215545 -379.06038084 868.13792182 -381.00219727 866.04736328 C-386.61305419 859.99844149 -391.95934704 853.79919053 -397.0625 847.3125 C-397.59907227 846.63735352 -398.13564453 845.96220703 -398.68847656 845.26660156 C-422.2578944 815.49267286 -442.00820962 783.20813028 -459.0625 749.3125 C-459.69551025 748.06847412 -459.69551025 748.06847412 -460.34130859 746.79931641 C-481.21551499 705.55519137 -495.23183961 660.65895505 -503.65380859 615.29492188 C-504.0663429 613.29385941 -504.58466567 611.34499942 -505.125 609.375 C-506.27983958 604.87965131 -506.5067938 600.43556684 -506.6875 595.8125 C-506.72617187 594.99007812 -506.76484375 594.16765625 -506.8046875 593.3203125 C-506.89781692 591.3180299 -506.98118985 589.31529738 -507.0625 587.3125 C-507.7225 587.3125 -508.3825 587.3125 -509.0625 587.3125 C-511.76417689 563.95544944 -512.35192098 540.67600056 -512.3125 517.1875 C-512.31142629 515.78946941 -512.31036821 514.39143881 -512.30932617 512.9934082 C-512.28382682 492.74139477 -512.17488424 472.68167368 -509.125 452.625 C-508.95548828 451.44228516 -508.78597656 450.25957031 -508.61132812 449.04101562 C-507.72476478 443.01710421 -506.62000645 437.19568611 -505.0625 431.3125 C-504.72340502 429.48389891 -504.40880784 427.6504936 -504.125 425.8125 C-503.35394342 421.05466249 -502.55120199 416.3043933 -501.6875 411.5625 C-501.47351563 410.37140625 -501.25953125 409.1803125 -501.0390625 407.953125 C-498.50132748 395.30159475 -494.85750884 382.94442544 -491.0625 370.625 C-490.6324446 369.21821137 -490.20275659 367.81131038 -489.7734375 366.40429688 C-488.93621892 363.66235005 -488.09474461 360.92176583 -487.25 358.18212891 C-486.48807844 355.70841845 -485.74009344 353.23193426 -485 350.75146484 C-483.00744198 344.10928048 -480.73987611 337.70689874 -478.0625 331.3125 C-477.34285244 329.53031009 -476.62413633 327.74774383 -475.90625 325.96484375 C-463.27246299 295.00949498 -448.13498988 265.4477928 -430.0625 237.3125 C-429.68287109 236.72082031 -429.30324219 236.12914062 -428.91210938 235.51953125 C-417.26501991 217.48101793 -404.47971789 200.24759293 -390.48339844 183.97167969 C-389.0551283 182.30389209 -387.63959731 180.62601897 -386.2265625 178.9453125 C-373.27380287 163.59316461 -359.56735703 148.24687009 -344.2421875 135.2109375 C-341.92523879 133.19294991 -339.68110645 131.1098792 -337.43652344 129.01220703 C-331.18111654 123.17153325 -324.77918855 117.62317304 -318.0625 112.3125 C-317.44874512 111.82088379 -316.83499023 111.32926758 -316.20263672 110.82275391 C-283.62180325 84.75020785 -248.04520841 62.60354745 -210.0625 45.3125 C-208.43852295 44.57241699 -208.43852295 44.57241699 -206.78173828 43.81738281 C-203.44297924 42.30394099 -200.09831636 40.80466827 -196.75 39.3125 C-195.7305127 38.85536621 -194.71102539 38.39823242 -193.66064453 37.92724609 C-188.27547576 35.55919249 -182.95265113 33.53341506 -177.27856445 31.9699707 C-174.96338936 31.28309547 -172.79143425 30.42819241 -170.5625 29.5 C-157.50920212 24.16168004 -143.92034047 20.26164438 -130.29321289 16.69726562 C-127.86233025 16.05917427 -125.4361332 15.40502421 -123.00976562 14.75 C-114.43146712 12.4699152 -106.06301326 10.71391533 -97.23608398 9.68457031 C-93.49378736 9.24582425 -89.87480338 8.58173336 -86.1875 7.8125 C-85.03507812 7.5753125 -83.88265625 7.338125 -82.6953125 7.09375 C-80.8278353 6.692142 -78.96056223 6.28835785 -77.10180664 5.84814453 C-51.76034903 -0.08401392 -25.86849287 -0.05968712 0 0 Z " fill="#1E5FA5" transform="translate(624.0625,89.6875)"/>
<path d="M0 0 C7.3865442 -0.08329041 14.77185186 -0.10293143 22.15881348 -0.09069824 C25.99316375 -0.08534436 29.82739644 -0.09067492 33.66174316 -0.0970459 C40.98541842 -0.1006959 48.30741315 -0.05271983 55.63049316 0.03967285 C56.75862427 0.05292603 57.88675537 0.0661792 59.04907227 0.07983398 C62.21535754 0.12830886 65.37923246 0.20666441 68.54455566 0.29748535 C69.9309877 0.31789383 69.9309877 0.31789383 71.34542847 0.3387146 C77.20672863 0.55411041 80.95545981 1.38312624 85.63049316 5.03967285 C88.9348711 10.58825944 89.52303499 16.5412376 90.34924316 22.8717041 C90.56526184 24.41938728 90.56526184 24.41938728 90.78564453 25.99833679 C91.24329519 29.28173836 91.68818178 32.56667228 92.13049316 35.85217285 C92.57349323 39.12684672 93.01957785 42.40095071 93.4753418 45.6738739 C93.75793542 47.70417077 94.03338611 49.73547998 94.30029297 51.76789856 C95.78485658 62.58781292 95.78485658 62.58781292 100.17346191 72.4498291 C104.12786341 75.00855948 108.44830346 76.15794339 112.94299316 77.47717285 C114.93537133 78.0872276 116.92755839 78.69790679 118.91955566 79.3092041 C120.38183594 79.75127197 120.38183594 79.75127197 121.87365723 80.20227051 C131.76892961 83.20800769 141.28873443 86.58604369 150.63049316 91.03967285 C152.96174246 92.04452168 155.29492854 93.04489533 157.63049316 94.03967285 C158.34979004 94.39287598 159.06908691 94.7460791 159.81018066 95.10998535 C164.59082549 97.41177731 168.23610141 98.98605737 173.63049316 98.03967285 C181.80789618 94.45207331 188.3830811 88.21033845 195.04309082 82.40930176 C198.28102204 79.61557765 201.61352315 76.9366835 204.93127441 74.2388916 C206.810302 72.7079328 208.68218984 71.16818659 210.54846191 69.6217041 C213.22609739 67.40660215 215.92546724 65.22114537 218.63049316 63.03967285 C220.14643066 61.77123535 220.14643066 61.77123535 221.69299316 60.47717285 C225.97479756 58.38182176 229.96238981 58.14043481 234.63049316 59.03967285 C240.34757972 61.32772049 245.2131937 64.68121471 250.06799316 68.41467285 C251.08735962 69.1887146 251.08735962 69.1887146 252.12731934 69.97839355 C259.49037103 75.61619025 266.62283817 81.53269958 273.74279785 87.47229004 C276.33243963 89.62250993 278.95045019 91.73601839 281.56799316 93.85217285 C285.92736102 97.41232327 290.12630033 101.12043344 294.28283691 104.91467285 C296.44854134 106.87497769 298.65508672 108.77286623 300.88049316 110.66467285 C310.91977514 119.56127232 310.91977514 119.56127232 311.44299316 125.03967285 C310.95449344 131.49872476 307.64804179 137.17276828 304.74719238 142.84436035 C303.57015335 145.15829454 302.42803093 147.48725721 301.29064941 149.82092285 C297.94539538 156.64561492 294.58346927 163.43964353 290.80236816 170.0357666 C290.34450928 170.83587158 289.88665039 171.63597656 289.41491699 172.46032715 C288.54466941 173.96531758 287.66246016 175.46348271 286.76599121 176.95300293 C283.97752585 181.75790881 282.59197864 185.42755621 282.63049316 191.03967285 C284.52017316 196.94590815 288.49202492 201.83139547 292.25549316 206.66467285 C293.31501485 208.05719647 294.37359024 209.45044055 295.43127441 210.84436035 C296.22718994 211.88801758 296.22718994 211.88801758 297.03918457 212.95275879 C299.52808486 216.2168152 302.0043068 219.48789056 304.44299316 222.78967285 C304.88143555 223.3615332 305.31987793 223.93339355 305.77160645 224.52258301 C308.67924702 228.49361652 308.67924702 228.49361652 308.45007324 231.0604248 C307.42740512 233.5301211 306.4447777 234.19894376 304.18518066 235.5982666 C303.45049561 236.05958984 302.71581055 236.52091309 301.9588623 236.99621582 C301.14925049 237.48493164 300.33963867 237.97364746 299.50549316 238.47717285 C298.65656494 238.9994043 297.80763672 239.52163574 296.9329834 240.05969238 C294.17732918 241.74035376 291.40754846 243.39463489 288.63049316 245.03967285 C287.73894531 245.56802734 286.84739746 246.09638184 285.92883301 246.64074707 C274.34538014 253.44799471 262.52134706 259.7257874 250.50549316 265.72717285 C249.59152267 266.18371246 249.59152267 266.18371246 248.65908813 266.6494751 C244.99600618 268.47416032 241.33289235 270.29604429 237.63049316 272.03967285 C236.78889648 272.44806396 235.9472998 272.85645508 235.0802002 273.27722168 C232.0518352 274.21977539 230.57727814 274.23195955 227.63049316 273.03967285 C225.95227051 270.70153809 225.95227051 270.70153809 224.46643066 267.5982666 C223.90713867 266.46445557 223.34784668 265.33064453 222.77160645 264.16247559 C222.33947845 263.25935135 222.33947845 263.25935135 221.89862061 262.33798218 C220.40030965 259.21628769 218.83834501 256.12721714 217.27111816 253.03967285 C216.96195465 252.42953842 216.65279114 251.81940399 216.33425903 251.19078064 C212.46109291 243.63501896 207.76907554 236.77828026 202.63049316 230.03967285 C201.57088379 228.63781738 201.57088379 228.63781738 200.48986816 227.2076416 C195.82644687 221.23148558 190.79282164 215.58711286 185.63049316 210.03967285 C184.71203613 209.04000488 184.71203613 209.04000488 183.77502441 208.0201416 C178.18532442 202.1682382 171.87205434 197.27803131 165.43322754 192.40686035 C164.28861555 191.53879059 163.14868753 190.66448201 162.01525879 189.78186035 C133.80877636 167.83955282 96.25374184 152.27351651 60.59924316 148.47717285 C58.03071319 148.19402781 55.46676858 147.86364728 52.91174316 147.47717285 C9.92079995 141.08182593 -36.79533992 150.32889988 -75.36950684 170.03967285 C-76.09847168 170.41027832 -76.82743652 170.78088379 -77.57849121 171.16271973 C-116.43246979 191.20670353 -147.25665608 221.96372446 -166.88122559 260.9888916 C-167.28059326 261.77530029 -167.67996094 262.56170898 -168.09143066 263.37194824 C-168.8417331 264.86381574 -169.57562243 266.36408979 -170.29016113 267.87341309 C-172.76389757 272.82028742 -172.76389757 272.82028742 -175.66833496 273.87243652 C-178.99315634 274.07828456 -180.68024429 273.3338632 -183.65856934 271.8638916 C-185.17921997 271.12477539 -185.17921997 271.12477539 -186.73059082 270.37072754 C-188.34622925 269.55716797 -188.34622925 269.55716797 -189.99450684 268.72717285 C-191.11607178 268.17319824 -192.23763672 267.61922363 -193.39318848 267.04846191 C-196.726483 265.39404932 -200.04863334 263.71884694 -203.36950684 262.03967285 C-204.66042236 261.39796143 -204.66042236 261.39796143 -205.97741699 260.74328613 C-222.72998353 252.41052959 -238.90526994 242.56506969 -254.36950684 232.03967285 C-253.08593809 228.54105532 -251.58666514 225.66661001 -249.42810059 222.63342285 C-248.84826416 221.81325684 -248.26842773 220.99309082 -247.67102051 220.14807129 C-247.055896 219.2872998 -246.44077148 218.42652832 -245.80700684 217.53967285 C-245.18092529 216.65054199 -244.55484375 215.76141113 -243.90979004 214.84533691 C-241.13603385 210.90839264 -238.34421859 206.98865934 -235.47888184 203.11779785 C-235.06323975 202.54609863 -234.64759766 201.97439941 -234.21936035 201.38537598 C-233.13903456 199.90228221 -232.04203469 198.43137371 -230.94372559 196.96154785 C-228.96240712 193.28406345 -228.15347959 190.22058424 -228.36950684 186.03967285 C-229.32658448 183.38703173 -230.24905991 181.32431974 -231.61950684 178.91467285 C-232.36434186 177.52216251 -233.10774928 176.12888793 -233.84997559 174.73498535 C-234.25522461 173.98765137 -234.66047363 173.24031738 -235.07800293 172.47033691 C-236.97034471 168.90887098 -238.7361503 165.28783544 -240.51525879 161.66882324 C-244.42145653 153.73055166 -248.39220848 145.91963228 -253.02966309 138.3795166 C-255.83531813 133.47984497 -256.86823772 129.72520498 -256.36950684 124.03967285 C-253.1728327 115.79561849 -246.91235094 110.6061233 -240.36950684 105.03967285 C-239.27185109 104.08152649 -238.17560885 103.12175946 -237.08044434 102.1607666 C-187.62686019 58.83900125 -187.62686019 58.83900125 -176.55700684 58.66467285 C-175.74618652 58.63631348 -174.93536621 58.6079541 -174.09997559 58.57873535 C-167.7879166 59.64429037 -162.97265038 63.97618429 -158.30700684 68.10217285 C-153.14417274 72.57038756 -147.86762238 76.84652712 -142.4786377 81.03820801 C-138.72575158 83.96161951 -135.03388183 86.94338813 -131.36950684 89.97717285 C-129.70552229 91.33463393 -128.03925422 92.68930668 -126.36950684 94.03967285 C-125.78685059 94.51662598 -125.20419434 94.9935791 -124.60388184 95.48498535 C-121.6286833 97.72421372 -119.21108572 98.44960048 -115.50231934 98.36315918 C-110.89513156 97.66438127 -106.71822886 95.48940442 -102.49450684 93.60217285 C-63.02590546 76.55828816 -63.02590546 76.55828816 -49.15075684 74.75061035 C-47.00128564 74.54464348 -47.00128564 74.54464348 -44.36950684 73.03967285 C-41.5115377 66.03121098 -40.63835295 58.203047 -39.65075684 50.7467041 C-39.355258 48.63145938 -39.05968283 46.51622531 -38.76403809 44.40100098 C-38.31385321 41.11661939 -37.86675267 37.83184099 -37.42175293 34.54675293 C-36.9849594 31.34145221 -36.53705343 28.13784283 -36.08825684 24.9342041 C-35.9600354 23.96006058 -35.83181396 22.98591705 -35.69970703 21.98225403 C-33.66057911 7.50108719 -33.66057911 7.50108719 -28.25085449 3.08996582 C-24.04145419 0.46662876 -20.13360993 0.26562415 -15.26794434 0.23498535 C-13.91713272 0.19898727 -13.91713272 0.19898727 -12.53903198 0.16226196 C-8.35973211 0.06597566 -4.18004772 0.04921623 0 0 Z " fill="#1E60A6" transform="translate(599.3695068359375,812.9603271484375)"/>
<path d="M0 0 C1.24247565 0.50085747 2.48556574 1.00019323 3.72924805 1.49804688 C7.23977842 2.90660872 10.74536355 4.32685089 14.25 5.75 C35.62280083 14.39698041 56.17815876 16.84345548 79.21875 14.25390625 C95.52580986 12.42330082 113.78269503 11.76736317 129.25 17.75 C130.12398437 18.02714844 130.99796875 18.30429688 131.8984375 18.58984375 C148.33252959 24.2147617 160.0368666 36.94716658 168.25 51.75 C175.10372232 65.87971189 176.33983074 79.45143848 171.51171875 94.4609375 C165.50359542 110.12298035 155.07505132 120.80389398 139.91015625 127.83984375 C138.42407088 128.48768661 136.93318403 129.12463661 135.4375 129.75 C134.74479004 130.04076416 134.05208008 130.33152832 133.33837891 130.63110352 C113.78919003 138.33830939 88.27134758 134.01720081 69.25 126.75 C68.39019531 126.4303125 67.53039062 126.110625 66.64453125 125.78125 C62.40583053 124.151486 58.34967923 122.32898836 54.3125 120.25 C49.11309171 117.59324906 43.7731624 115.62321228 38.25 113.75 C37.39535156 113.45996094 36.54070312 113.16992188 35.66015625 112.87109375 C33.52622063 112.15517045 31.38928784 111.4497254 29.25 110.75 C28.26 110.42 27.27 110.09 26.25 109.75 C11.46749543 108.60421502 5.27875892 112.62396626 -5.75 121.75 C-10.79619232 125.79804439 -15.77975572 129.21057318 -21.75 131.75 C-22.93207031 132.27335938 -24.11414063 132.79671875 -25.33203125 133.3359375 C-36.14120807 137.32346157 -52.29365495 136.27234104 -62.73144531 131.69775391 C-68.57881394 128.95229128 -74.35863564 126.06353261 -80.08740234 123.07910156 C-85.26078706 120.39485395 -90.27572121 118.03469866 -95.8581543 116.34033203 C-97.75 115.75 -97.75 115.75 -100.31640625 114.58984375 C-109.80629684 111.31484138 -121.61269394 113.48044019 -130.59375 117.13671875 C-139.87865872 121.88259412 -147.36726486 129.40061324 -153 138.125 C-154.75 140.75 -154.75 140.75 -157.75 142.75 C-160.52046025 142.98207366 -163.18799484 143.10198399 -165.9609375 143.12109375 C-166.76608795 143.13012222 -167.5712384 143.1391507 -168.40078735 143.14845276 C-170.10374229 143.16295481 -171.80675295 143.17184189 -173.50976562 143.17553711 C-176.10903342 143.18742696 -178.70592128 143.23660245 -181.3046875 143.28710938 C-182.96092594 143.2965748 -184.61717893 143.30380926 -186.2734375 143.30859375 C-187.04754974 143.32812607 -187.82166199 143.34765839 -188.61923218 143.36778259 C-192.69995371 143.33384079 -194.50816483 142.946409 -197.71728516 140.34008789 C-203.06525905 133.52569262 -201.28763725 123.03485132 -200.75 114.75 C-198.51210404 97.06695324 -186.70575965 80.32212185 -173.5859375 68.91796875 C-160.2579224 58.72919687 -144.43014066 52.37466271 -127.625 51.375 C-115.3226337 50.28593807 -106.54294551 43.37982507 -98.66796875 34.3671875 C-95.86649826 30.93027498 -93.2200027 27.4071334 -90.640625 23.80078125 C-68.0891592 -7.427401 -34.97064405 -14.44308994 0 0 Z " fill="#FCFCFC" transform="translate(739.75,207.25)"/>
<path d="M0 0 C0.68184357 -0.00671722 1.36368713 -0.01343445 2.06619263 -0.02035522 C4.3159315 -0.03932182 6.56537174 -0.04325893 8.81518555 -0.04541016 C10.38453798 -0.0518399 11.95388921 -0.05856839 13.52323914 -0.06558228 C16.81255877 -0.0775523 20.10177341 -0.08126348 23.39111328 -0.08007812 C27.59434887 -0.07987515 31.79690671 -0.10715579 35.99998188 -0.14162254 C39.24205074 -0.16392546 42.4839575 -0.16791461 45.7260952 -0.16685867 C47.27496866 -0.16921036 48.82384688 -0.17800948 50.37264442 -0.19352341 C65.68554284 -0.332526 65.68554284 -0.332526 71.1394043 4.29052734 C73.47077104 7.40118103 73.48808055 10.53604603 73.7019043 14.35302734 C73.77546143 15.60188721 73.84901855 16.85074707 73.92480469 18.13745117 C73.99674657 19.52178872 74.06826546 20.9061483 74.1394043 22.29052734 C74.22024818 23.74978113 74.30155936 25.2090091 74.38330078 26.66821289 C74.65147513 31.54152748 74.89662581 36.41589129 75.1394043 41.29052734 C75.20481415 42.58824066 75.20481415 42.58824066 75.27154541 43.91217041 C76.36992615 65.73717083 77.31714985 87.56077525 77.79785156 109.40893555 C77.82220276 110.44630859 77.82220276 110.44630859 77.8470459 111.50463867 C77.88942301 113.33009696 77.92782257 115.15564647 77.96582031 116.98120117 C78.22598632 124.88256683 78.88893943 132.77109769 79.44966125 140.65589905 C80.10407572 149.94385827 80.66042109 159.23102299 81.09189415 168.53220558 C81.31178287 173.2029161 81.57218397 177.8640818 81.92407227 182.52685547 C84.15742766 212.66205767 84.15742766 212.66205767 79.26165771 220.17025757 C74.46544622 224.72982567 68.94179684 227.14392484 62.75946045 229.3182373 C59.1468157 230.65887212 56.27920116 232.51049047 53.0690918 234.63818359 C52.06112549 235.25661133 51.05315918 235.87503906 50.01464844 236.51220703 C39.10135388 243.20813355 28.23602543 249.97305499 17.42797852 256.83740234 C11.80672748 260.40660292 6.17941912 263.96607144 0.54174805 267.50927734 C-2.23345842 269.25482631 -4.99049839 271.02333905 -7.73168945 272.82177734 C-8.31901855 273.20043945 -8.90634766 273.57910156 -9.51147461 273.96923828 C-11.04602828 274.95860377 -12.57282379 275.9599749 -14.09887695 276.96240234 C-17.27010954 278.48746469 -19.38295058 278.63176813 -22.8605957 278.29052734 C-24.60859581 276.54252723 -23.98819238 274.11438218 -23.98999023 271.73950195 C-23.9931424 270.54993393 -23.99629456 269.36036591 -23.99954224 268.13475037 C-23.99751801 266.83393021 -23.99549377 265.53311005 -23.9934082 264.19287109 C-23.99408236 262.8425749 -23.99505332 261.49227882 -23.99630737 260.14198303 C-23.99778663 257.29622251 -23.99562756 254.45049323 -23.9909668 251.60473633 C-23.98534973 248.00389584 -23.98858702 244.40313053 -23.99441147 240.80229282 C-24.02911642 215.51427154 -24.02911642 215.51427154 -23.11010742 203.56469727 C-22.26922678 191.09332064 -22.47334853 178.51615634 -22.30834961 166.02172852 C-22.25627061 162.17767719 -22.19919857 158.3337218 -22.1418457 154.48974609 C-22.12827026 153.32803391 -22.11469482 152.16632172 -22.10070801 150.96940613 C-22.00994509 144.94988371 -21.70081148 139.02748776 -21.10238647 133.03819275 C-20.66040775 128.01562869 -20.54584189 122.98115243 -20.39575195 117.94287109 C-20.31833338 115.55598514 -20.24077266 113.1691038 -20.16308594 110.78222656 C-20.12400116 109.54825134 -20.08491638 108.31427612 -20.04464722 107.04290771 C-19.44601326 88.25484939 -18.79250535 69.48517199 -17.53393555 50.72875977 C-17.09309353 44.00270897 -16.78795074 37.30221913 -16.6887207 30.56396484 C-16.67575455 29.8441745 -16.66278839 29.12438416 -16.64942932 28.38278198 C-16.58797688 24.95529581 -16.54881995 21.53286463 -16.55371094 18.10449219 C-16.39970605 8.15884309 -16.39970605 8.15884309 -13.56762695 4.55615234 C-8.9449058 0.68720823 -6.06129682 0.03752818 0 0 Z " fill="#FCFCFC" transform="translate(533.860595703125,378.70947265625)"/>
<path d="M0 0 C1.22169388 -0.0127597 2.44338776 -0.02551941 3.70210266 -0.03866577 C5.03732139 -0.04172379 6.37254224 -0.04395135 7.70776367 -0.04541016 C9.07915893 -0.05183881 10.45055281 -0.05856722 11.82194519 -0.06558228 C14.69773536 -0.07755822 17.5734054 -0.08126292 20.44921875 -0.08007812 C24.12462961 -0.07987521 27.79926478 -0.10714558 31.47449207 -0.14162254 C34.30819699 -0.16392414 37.14171643 -0.16791465 39.97550011 -0.16685867 C41.98623253 -0.17035105 43.99690705 -0.19199893 46.00752258 -0.21395874 C57.43326891 -0.15685314 57.43326891 -0.15685314 62.06323242 4.29052734 C64.10068679 7.3467089 64.3397461 8.17986417 64.51806641 11.66088867 C64.59357475 13.00756874 64.59357475 13.00756874 64.67060852 14.38145447 C64.71638535 15.36851883 64.76216217 16.35558319 64.80932617 17.37255859 C64.86497238 18.42016861 64.92061859 19.46777863 64.97795105 20.5471344 C65.16182843 24.06534494 65.33168132 27.58407521 65.50073242 31.10302734 C65.62647364 33.60060601 65.75262194 36.09816421 65.87915039 38.59570312 C66.25501229 46.10834456 66.61120733 53.62181271 66.9622879 61.13564301 C67.06360918 63.29857017 67.16579907 65.46145466 67.26824951 67.62432861 C67.47653773 72.02469285 67.68279399 76.425149 67.88745117 80.82568359 C67.92156727 81.55883915 67.95568336 82.29199471 67.99083328 83.0473671 C68.36970695 91.22852276 68.724838 99.40990811 69.02807617 107.59423828 C69.05535105 108.32581964 69.08262592 109.05740101 69.11072731 109.8111515 C69.13788511 110.53976576 69.16504292 111.26838001 69.19302368 112.01907349 C69.22006001 112.74436375 69.24709633 113.46965401 69.27495193 114.21692276 C69.32897881 115.67109778 69.38258766 117.1252884 69.43577194 118.57949448 C69.75940681 127.32952698 70.22237898 136.04705385 70.90228271 144.77838135 C71.25256571 149.39926347 71.52737331 154.02283707 71.78924561 158.6494751 C71.92803451 160.75181657 72.10273193 162.85215759 72.31671143 164.94818115 C73.60982295 177.73148982 73.60982295 177.73148982 71.06323242 183.29052734 C66.2700429 188.64500797 59.84577095 191.84773833 53.50515747 195.03781128 C50.42303621 196.61895023 47.64379922 198.43456954 44.78198242 200.38427734 C43.91154297 200.95235107 43.04110352 201.5204248 42.14428711 202.10571289 C41.29253906 202.66170166 40.44079102 203.21769043 39.56323242 203.79052734 C37.62057288 205.05752924 35.67786361 206.32445489 33.73510742 207.59130859 C30.95796311 209.40230498 28.18102351 211.21360829 25.4050293 213.02636719 C20.45519724 216.25839362 15.49860182 219.47954935 10.53344727 222.68798828 C7.93909533 224.37106064 5.35496188 226.06923747 2.77026367 227.76708984 C1.05581966 228.87968523 -0.65901086 229.9916853 -2.37426758 231.10302734 C-3.1615625 231.62533936 -3.94885742 232.14765137 -4.76000977 232.68579102 C-5.49767578 233.15992432 -6.2353418 233.63405762 -6.99536133 234.12255859 C-7.63787842 234.54255127 -8.28039551 234.96254395 -8.94238281 235.39526367 C-11.38729096 236.49276376 -13.28629785 236.44988285 -15.93676758 236.29052734 C-17.57244245 233.40804213 -18.18731521 231.34563626 -18.19073486 228.03913879 C-18.19637451 227.19572433 -18.20201416 226.35230988 -18.20782471 225.4833374 C-18.20377625 224.56481995 -18.19972778 223.64630249 -18.19555664 222.69995117 C-18.19906128 221.72468979 -18.20256592 220.74942841 -18.20617676 219.74461365 C-18.21502093 216.49552396 -18.20911511 213.24665085 -18.20239258 209.99755859 C-18.20374328 207.69927428 -18.20568717 205.40099025 -18.20819092 203.10270691 C-18.21114967 198.24772463 -18.20683812 193.39281557 -18.19750977 188.5378418 C-18.18639822 182.47401358 -18.19267611 176.4103664 -18.20439816 170.34654522 C-18.25348254 140.3049757 -17.61250499 110.36529036 -16.17523193 80.3586731 C-15.85501628 73.64089213 -15.59370421 66.92125889 -15.33911133 60.20068359 C-15.25931782 58.16356305 -15.17925321 56.1264531 -15.09887695 54.08935547 C-14.98419008 51.16595965 -14.86999133 48.24254733 -14.75683594 45.3190918 C-14.56723518 40.4303512 -14.37184193 35.54208165 -14.15893555 30.65429688 C-14.00508462 27.11380745 -13.88758709 23.57485931 -13.79663086 20.03222656 C-13.74086462 18.4086781 -13.68473265 16.78514214 -13.62817383 15.16162109 C-13.61761459 14.43346695 -13.60705536 13.70531281 -13.59617615 12.95509338 C-13.40172391 8.15292042 -12.33672621 5.67267906 -8.93676758 2.29052734 C-5.46678681 -0.02279317 -4.09655459 0.0290067 0 0 Z " fill="#FBFBFC" transform="translate(710.936767578125,425.70947265625)"/>
<path d="M0 0 C0.33 0 0.66 0 1 0 C1.20638953 31.32040447 1.20638953 31.32040447 0 45 C-0.33 45 -0.66 45 -1 45 C-1.1969993 40.9170667 -1.38095476 36.83364734 -1.5625 32.75 C-1.61857422 31.59113281 -1.67464844 30.43226563 -1.73242188 29.23828125 C-1.78076172 28.12324219 -1.82910156 27.00820313 -1.87890625 25.859375 C-1.9260376 24.83295898 -1.97316895 23.80654297 -2.02172852 22.74902344 C-2.00197943 20.25043151 -1.66932738 18.38230966 -1 16 C-0.77609683 13.24682026 -0.58606338 10.50694671 -0.4375 7.75 C-0.39431641 7.00492188 -0.35113281 6.25984375 -0.30664062 5.4921875 C-0.20103275 3.661651 -0.10005799 1.83084824 0 0 Z " fill="#6593C2" transform="translate(511,549)"/>
<path d="M0 0 C0.33 0.99 0.66 1.98 1 3 C-1.97 5.97 -4.94 8.94 -8 12 C-8.99 11.34 -9.98 10.68 -11 10 C-9.73232923 8.70522938 -8.46073776 7.41429661 -7.1875 6.125 C-6.47980469 5.40570313 -5.77210938 4.68640625 -5.04296875 3.9453125 C-3 2 -3 2 0 0 Z " fill="#2465AB" transform="translate(602,328)"/>
<path d="M0 0 C0.66 0.66 1.32 1.32 2 2 C1.278125 2.556875 0.55625 3.11375 -0.1875 3.6875 C-5.03729652 7.67511048 -9.05189214 12.14946749 -13 17 C-13.66 16.34 -14.32 15.68 -15 15 C-10.05 10.05 -5.1 5.1 0 0 Z " fill="#EEF4F9" transform="translate(1000,966)"/>
<path d="M0 0 C0.66 0.33 1.32 0.66 2 1 C0.76238177 2.65516419 -0.49057455 4.29886798 -1.75 5.9375 C-2.44609375 6.85402344 -3.1421875 7.77054687 -3.859375 8.71484375 C-6.01029035 11.01098513 -6.93617261 11.67567593 -10 12 C-7.11954533 7.34695784 -3.96084779 3.78080926 0 0 Z " fill="#DEE8F3" transform="translate(564,278)"/>
<path d="M0 0 C0.66 0 1.32 0 2 0 C2 0.99 2 1.98 2 3 C0.57421875 4.31640625 0.57421875 4.31640625 -1.3125 5.5625 C-1.92738281 5.97628906 -2.54226563 6.39007813 -3.17578125 6.81640625 C-4.07876953 7.40228516 -4.07876953 7.40228516 -5 8 C-5.99 8.66 -6.98 9.32 -8 10 C-8.99 9.67 -9.98 9.34 -11 9 C-10.37351562 8.51789063 -9.74703125 8.03578125 -9.1015625 7.5390625 C-7.87566406 6.59160156 -7.87566406 6.59160156 -6.625 5.625 C-5.81289063 4.99851562 -5.00078125 4.37203125 -4.1640625 3.7265625 C-1.95776805 2.03226506 -1.95776805 2.03226506 0 0 Z " fill="#2A69AB" transform="translate(737,325)"/>
<path d="M0 0 C5.82271337 -0.59720137 9.9209404 1.471757 15 4 C15 4.66 15 5.32 15 6 C11.33827525 5.37321829 8.1181005 4.35548154 4.6875 2.9375 C3.36298828 2.39416016 3.36298828 2.39416016 2.01171875 1.83984375 C1.34785156 1.56269531 0.68398438 1.28554688 0 1 C0 0.67 0 0.34 0 0 Z " fill="#3E75B0" transform="translate(708,973)"/>
<path d="M0 0 C0.33 0 0.66 0 1 0 C1 1.65 1 3.3 1 5 C1.99 5.33 2.98 5.66 4 6 C4 7.98 4 9.96 4 12 C3.67 12 3.34 12 3 12 C2.67 13.65 2.34 15.3 2 17 C1.67 17 1.34 17 1 17 C0.67 11.39 0.34 5.78 0 0 Z " fill="#618FC1" transform="translate(114,660)"/>
<path d="M0 0 C0.66 0 1.32 0 2 0 C1.67 2.31 1.34 4.62 1 7 C0.01 7.33 -0.98 7.66 -2 8 C-1.125 1.125 -1.125 1.125 0 0 Z " fill="#2866A9" transform="translate(131,469)"/>
<path d="M0 0 C1.25 1.5625 1.25 1.5625 2 4 C0.93237266 6.57001015 -0.46544943 8.6530403 -2 11 C-2.66 11 -3.32 11 -4 11 C-3.52269162 9.5410574 -3.04308958 8.08286504 -2.5625 6.625 C-2.29566406 5.81289063 -2.02882812 5.00078125 -1.75390625 4.1640625 C-1 2 -1 2 0 0 Z " fill="#3371B2" transform="translate(159,390)"/>
<path d="M0 0 C0.66 0.33 1.32 0.66 2 1 C-1.08290155 5.22797927 -1.08290155 5.22797927 -3 7 C-5.8125 7.375 -5.8125 7.375 -8 7 C-7.236875 6.401875 -6.47375 5.80375 -5.6875 5.1875 C-3.6516425 3.53040668 -1.8021721 1.89702326 0 0 Z " fill="#2D6CAE" transform="translate(895,324)"/>
<path d="M0 0 C0.33 0 0.66 0 1 0 C1.08097324 2.27024968 1.13917704 4.54132075 1.1875 6.8125 C1.22230469 8.07707031 1.25710938 9.34164062 1.29296875 10.64453125 C1 14 1 14 -2 17 C-1.34 11.39 -0.68 5.78 0 0 Z " fill="#B4CBE3" transform="translate(1135,682)"/>
<path d="M0 0 C3.57104439 1.87949705 5.54744301 3.17053157 7 7 C6.01 7 5.02 7 4 7 C0 2.65714286 0 2.65714286 0 0 Z " fill="#2A6AAF" transform="translate(888,1018)"/>
<path d="M0 0 C1.61949011 2.57213134 2.04408751 3.67669159 1.625 6.75 C1.41875 7.4925 1.2125 8.235 1 9 C0.01 8.67 -0.98 8.34 -2 8 C-1.34 5.36 -0.68 2.72 0 0 Z " fill="#407CBB" transform="translate(945,998)"/>
<path d="M0 0 C0.66 0.33 1.32 0.66 2 1 C-0.31 3.64 -2.62 6.28 -5 9 C-5.66 8.34 -6.32 7.68 -7 7 C-4.69 4.69 -2.38 2.38 0 0 Z " fill="#E6EEF6" transform="translate(992,974)"/>
<path d="M0 0 C0.66 0.33 1.32 0.66 2 1 C2 1.66 2 2.32 2 3 C1.34 3 0.68 3 0 3 C0 3.66 0 4.32 0 5 C-1.98 5 -3.96 5 -6 5 C-5.195625 4.360625 -4.39125 3.72125 -3.5625 3.0625 C-1.7249496 1.59396498 -1.7249496 1.59396498 0 0 Z " fill="#316FB1" transform="translate(781,906)"/>
<path d="M0 0 C0.66 0.33 1.32 0.66 2 1 C0.68 2.65 -0.64 4.3 -2 6 C-3.32 5.67 -4.64 5.34 -6 5 C-4.02 3.35 -2.04 1.7 0 0 Z " fill="#326FAF" transform="translate(791,898)"/>
<path d="M0 0 C1.0625 1.8125 1.0625 1.8125 2 4 C1.67 4.99 1.34 5.98 1 7 C0.34 7 -0.32 7 -1 7 C-1.33 7.99 -1.66 8.98 -2 10 C-1.54177532 6.53058454 -1.10868317 3.32604951 0 0 Z " fill="#C8D8E9" transform="translate(542,311)"/>
<path d="M0 0 C-0.33 0.99 -0.66 1.98 -1 3 C-3.375 3.625 -3.375 3.625 -6 4 C-6.66 3.34 -7.32 2.68 -8 2 C-5.09399739 0.74335022 -3.20395416 0 0 0 Z " fill="#3976B4" transform="translate(435,127)"/>
<path d="M0 0 C0.66 0.99 1.32 1.98 2 3 C0.35 4.65 -1.3 6.3 -3 8 C-3 4.42424104 -1.91159393 2.94704065 0 0 Z " fill="#2D6DB1" transform="translate(353,1031)"/>
</svg>
