<svg xmlns="http://www.w3.org/2000/svg" width="1254" height="1254"><path fill="#FDFCFC" d="M0 0h1254v1254H0z"/><path fill="#1E5FA5" d="m624.063 89.688 2.264.003c21.628.04 43.027.315 64.486 3.246l3.904.514c23.407 3.11 23.407 3.11 26.283 4.549 3.534.456 7.073.833 10.617 1.207 4.554.673 8.74 2.195 13.077 3.699 5.938 1.965 12.003 3.462 18.056 5.031 9.809 2.576 19.574 5.192 29.204 8.387 2.457.812 4.922 1.602 7.386 2.395q2.83.92 5.66 1.844l2.647.851c4.654 1.538 8.961 3.3 13.303 5.57 3.06 1.516 6.23 2.712 9.407 3.957 15.977 6.4 31.253 14.273 46.231 22.711a328 328 0 0 0 6.392 3.473c24.12 12.914 47.494 29.451 68.122 47.375 2.71 2.338 5.475 4.58 8.273 6.813 12.092 9.901 23.07 21.037 34.125 32.062l1.716 1.708c6.146 6.124 12.196 12.273 17.784 18.917l2.844 3.309 2.656 3.128 1.316 1.542c3.87 4.564 7.537 9.277 11.184 14.021l1.737 2.254c22.291 29.048 40.956 60.008 57.263 92.746l1.399 2.806c8.344 16.865 15.194 34.222 20.935 52.133a560 560 0 0 0 2.096 6.323c14.859 44.491 14.859 44.491 17.144 65.176.483 4.037 1.171 8.005 1.926 12l.719 3.808c.54 2.592 1.129 5.095 1.812 7.645 2.073 8.157 2.258 16.75 2.969 25.109l.26 3.012c1.5 17.607 2.217 35.13 2.24 52.8l.01 3.905c-.004 24.02-2.14 47.286-6.12 70.952q-.55 3.3-1.068 6.607c-2.406 15.203-5.666 30.093-9.602 44.97a687 687 0 0 0-2.243 8.89C1106.689 810.439 1076.67 871.372 1037 923l-1.495 1.955c-9.423 12.28-19.414 24.005-29.948 35.344-1.943 2.123-3.85 4.278-5.764 6.428-4.786 5.324-9.782 10.41-14.856 15.46l-2.564 2.577c-4.962 4.954-10.037 9.688-15.373 14.236l-3.352 2.922c-6.037 5.23-12.142 10.361-18.398 15.328l-1.807 1.448C939.239 1022 939.239 1022 937 1022c.965-4.033 2.305-7.907 3.688-11.812l.808-2.292a339 339 0 0 1 5.442-14.208C952.85 979.092 957.823 964.179 962 949l.959-3.484q1.354-4.94 2.687-9.885.792-2.93 1.588-5.861c4.63-17.336 9.275-38.076 1.317-55.114-5.94-10.175-14.205-18.053-23.739-24.843l-2.373-1.697c-13.573-9.556-28.08-17.516-42.607-25.503l-4.045-2.228Q890.894 817.692 886 815l-.007-3.709a73521 73521 0 0 0-.255-97.81l-.007-2.155c-.036-11.522-.06-23.043-.081-34.564q-.033-17.725-.099-35.45-.037-9.96-.049-19.918-.01-9.365-.056-18.731-.015-3.445-.011-6.89c.002-3.126-.015-6.251-.036-9.377l.014-2.78-.028-2.53-.006-2.187c-.494-2.477-1.405-3.366-3.379-4.899-5.933-1.112-9.606 1.835-14.312 5l-5.11 3.332-2.74 1.807c-3.903 2.56-7.843 5.06-11.782 7.564-10.832 6.893-21.588 13.899-32.324 20.94A2159 2159 0 0 1 793.5 627c-10.916 6.962-21.758 14.032-32.586 21.129a2179 2179 0 0 1-14.039 9.121c-8.362 5.394-16.68 10.854-25 16.313l-2.041 1.338q-2.984 1.957-5.967 3.915l-1.96 1.287q-5.065 3.328-10.097 6.705l-2.06 1.382q-1.94 1.301-3.873 2.61c-5.574 3.744-8.983 5.952-15.877 5.2-3.34-3.228-3.976-6.346-4.145-10.94a895 895 0 0 1-.029-5.058l-.02-2.79q-.021-3-.036-6-.026-4.748-.065-9.494-.105-13.496-.182-26.993-.049-8.252-.12-16.505-.024-3.148-.037-6.295c-.012-2.933-.036-5.865-.063-8.798l-.002-2.634-.03-2.426-.012-2.1c-.304-2.31-1.122-3.948-2.259-5.967-5.378-.522-8.484 1.085-12.812 4l-2.051 1.33a812 812 0 0 0-4.58 2.992c-4.848 3.182-9.737 6.3-14.62 9.428l-3.248 2.084c-9.765 6.251-19.647 12.295-29.574 18.284a4161 4161 0 0 0-10.252 6.218c-11.242 6.836-22.488 13.666-33.781 20.419q-6.886 4.12-13.77 8.245l-3.195 1.915a3108 3108 0 0 0-17.46 10.55l-1.861 1.132q-4.442 2.704-8.879 5.417a1114 1114 0 0 1-6.57 3.974 515 515 0 0 0-7.01 4.294q-1.833 1.112-3.669 2.222l-3.292 2.03c-4.238 1.84-6.797 1.871-11.376 1.466-2.623-2.369-3.337-4.608-4-8a172 172 0 0 1-.19-6.698l-.025-2.018q-.025-2.169-.045-4.338-.034-3.47-.077-6.938-.088-7.41-.163-14.82c-.235-25.416-.235-25.416-.844-50.825l-.062-2.815-.1-2.531-.07-2.155c-.552-2.424-1.485-3.344-3.424-4.862-5.05-.956-7.965.845-12.037 3.53l-2.264 1.552-2.408 1.602a1172 1172 0 0 0-7.603 5.129 3833 3833 0 0 1-4.979 3.333 3647 3647 0 0 0-7.424 4.976c-11.765 7.909-23.688 15.573-35.723 23.066l-3.037 1.894c-13.507 8.414-27.069 16.74-40.64 25.05q-9 5.51-17.973 11.065a2310 2310 0 0 1-5.601 3.457 909 909 0 0 0-7.061 4.409l-2.002 1.225c-5.055 3.224-9.532 7.28-12.248 12.712-.368 3.826-.45 7.674-.59 11.514l-.13 3.536c-.365 11.135-.203 22.23.073 33.364.163 7.131.244 14.264.342 21.396.09 6.217.208 12.43.382 18.646.168 6.092.263 12.182.307 18.277q.045 3.45.171 6.898c.617 17.317.617 17.317-2.975 22.365-3.428 3.408-7.303 5.763-11.587 7.948-3.356 1.778-6.429 3.971-9.555 6.119q-1.861 1.234-3.727 2.46C281.688 849.521 275.809 853.7 270 858l-2.441 1.762c-6.423 5.033-10.672 11.351-11.905 19.532-1.438 15.443 2.102 29.966 6.346 44.706l.727 2.529c2.122 7.265 4.5 14.428 7.273 21.471.345.936.69 1.872 1.047 2.836 2.95 7.91 6.357 15.536 9.994 23.144a705 705 0 0 1 2.975 6.364c3.416 7.365 6.906 14.603 10.953 21.652C296 1004 296 1004 296 1006h-2v-2l-1.617-.652c-3.262-1.845-5.81-4.345-8.508-6.91l-3.508-3.29-1.74-1.633c-2.174-2.024-4.4-3.988-6.627-5.952-8.18-7.34-16.088-15.102-23.203-23.485-1.866-2.158-3.795-4.253-5.737-6.343-5.61-6.05-10.957-12.248-16.06-18.735l-1.626-2.046C201.804 905.18 182.054 872.896 165 839l-1.279-2.513c-20.874-41.244-34.89-86.14-43.312-131.505-.413-2-.931-3.95-1.472-5.92-1.154-4.495-1.381-8.939-1.562-13.562l-.117-2.492q-.138-3.003-.258-6.008h-2c-2.702-23.357-3.29-46.636-3.25-70.125l.003-4.194c.026-20.252.135-40.312 3.185-60.369l.513-3.583c.887-6.024 1.991-11.846 3.549-17.729q.511-2.743.938-5.5a741 741 0 0 1 2.437-14.25l.648-3.61c2.538-12.65 6.182-25.008 9.977-37.327l1.29-4.221q1.255-4.113 2.523-8.222 1.14-3.71 2.25-7.431c1.992-6.642 4.26-13.045 6.937-19.439q1.08-2.673 2.156-5.348C160.79 384.697 175.928 355.135 194 327c.38-.592.76-1.183 1.15-1.793 11.647-18.038 24.433-35.272 38.43-51.548a724 724 0 0 0 4.256-5.026c12.953-15.352 26.66-30.699 41.984-43.735 2.317-2.018 4.561-4.1 6.806-6.198 6.255-5.841 12.657-11.39 19.374-16.7l1.86-1.49C340.44 174.438 376.017 152.291 414 135l3.28-1.495c3.34-1.514 6.684-3.013 10.033-4.505l3.089-1.385c5.385-2.368 10.708-4.394 16.382-5.958 2.315-.686 4.487-1.541 6.716-2.47 13.053-5.338 26.642-9.238 40.27-12.802 2.43-.638 4.856-1.292 7.283-1.948 8.578-2.28 16.946-4.036 25.773-5.065 3.743-.439 7.362-1.103 11.049-1.872l3.492-.719c1.868-.401 3.735-.805 5.594-1.245 25.341-5.933 51.233-5.908 77.101-5.849"/><path fill="#1E60A6" d="M599.37 812.96a1713 1713 0 0 1 22.158-.09c3.835.005 7.669 0 11.503-.007q10.985-.003 21.969.137l3.419.04c3.166.049 6.33.127 9.495.218l2.8.041c5.862.215 9.611 1.044 14.286 4.701 3.304 5.549 3.893 11.502 4.719 17.832l.436 3.127c.458 3.283.903 6.568 1.345 9.853q.663 4.913 1.345 9.822.424 3.045.825 6.094c1.484 10.82 1.484 10.82 5.873 20.682 3.954 2.559 8.275 3.708 12.77 5.027l5.976 1.833 2.954.893c9.895 3.005 19.415 6.383 28.757 10.837q3.496 1.507 7 3l2.18 1.07c4.78 2.302 8.426 3.876 13.82 2.93 8.177-3.588 14.753-9.83 21.413-15.63 3.238-2.794 6.57-5.473 9.888-8.17q2.818-2.298 5.617-4.618c2.678-2.215 5.377-4.4 8.082-6.582l3.062-2.563c4.282-2.095 8.27-2.336 12.938-1.437 5.717 2.288 10.583 5.642 15.437 9.375l2.06 1.564c7.363 5.638 14.495 11.554 21.615 17.494 2.59 2.15 5.208 4.263 7.825 6.38 4.36 3.56 8.559 7.268 12.715 11.062 2.166 1.96 4.373 3.858 6.598 5.75 10.04 8.897 10.04 8.897 10.562 14.375-.488 6.46-3.794 12.133-6.695 17.805a456 456 0 0 0-3.457 6.976c-3.345 6.825-6.707 13.619-10.488 20.215l-1.388 2.425a298 298 0 0 1-2.649 4.492c-2.788 4.805-4.174 8.475-4.135 14.087 1.89 5.906 5.862 10.792 9.625 15.625q1.59 2.09 3.176 4.18l1.608 2.108a805 805 0 0 1 7.403 9.837l1.33 1.733c2.907 3.97 2.907 3.97 2.678 6.538-1.023 2.47-2.006 3.138-4.265 4.538-.735.46-1.47.922-2.227 1.398l-2.453 1.48-2.573 1.583A752 752 0 0 1 888 1058l-2.702 1.601c-11.583 6.807-23.407 13.085-35.423 19.086l-1.846.923c-3.663 1.824-7.327 3.646-11.029 5.39l-2.55 1.238c-3.029.942-4.503.954-7.45-.238-1.678-2.338-1.678-2.338-3.164-5.441l-1.695-3.436-.873-1.825c-1.498-3.121-3.06-6.21-4.627-9.298l-.937-1.849c-3.873-7.556-8.565-14.412-13.704-21.151l-2.14-2.832c-4.664-5.976-9.698-11.62-14.86-17.168l-1.855-2.02c-5.59-5.851-11.903-10.742-18.342-15.613a337 337 0 0 1-3.418-2.625c-28.207-21.942-65.762-37.508-101.416-41.305a192 192 0 0 1-7.688-1C609.291 954.042 562.574 963.29 524 983l-2.209 1.123c-38.854 20.044-69.678 50.801-89.303 89.826l-1.21 2.383a210 210 0 0 0-2.199 4.502c-2.473 4.947-2.473 4.947-5.378 5.999-3.325.206-5.012-.539-7.99-2.009l-3.072-1.493-3.264-1.644-3.399-1.678c-3.333-1.655-6.655-3.33-9.976-5.009l-2.608-1.296C376.64 1065.37 360.464 1055.525 345 1045c1.284-3.499 2.783-6.373 4.941-9.406l1.757-2.486c.616-.86 1.23-1.721 1.864-2.608l1.898-2.694c2.773-3.937 5.565-7.857 8.43-11.728l1.26-1.732a452 452 0 0 1 3.276-4.424c1.981-3.678 2.79-6.741 2.574-10.922-.957-2.653-1.88-4.715-3.25-7.125q-1.117-2.09-2.23-4.18l-1.228-2.264c-1.893-3.562-3.659-7.183-5.438-10.802-3.906-7.938-7.877-15.749-12.514-23.29-2.806-4.899-3.839-8.653-3.34-14.339 3.197-8.244 9.457-13.434 16-19q1.647-1.437 3.29-2.879c49.453-43.322 49.453-43.322 60.522-43.496l2.458-.086c6.312 1.066 11.127 5.398 15.792 9.523 5.163 4.469 10.44 8.745 15.829 12.937A479 479 0 0 1 468 902.937q2.495 2.037 5 4.063l1.766 1.445c2.975 2.24 5.392 2.965 9.101 2.878 4.607-.698 8.784-2.873 13.008-4.76 39.469-17.044 39.469-17.044 53.344-18.852 2.15-.206 2.15-.206 4.781-1.711 2.858-7.008 3.731-14.837 4.719-22.293l.886-6.346q.675-4.926 1.343-9.854c.437-3.205.884-6.409 1.333-9.612l.389-2.952c2.039-14.482 2.039-14.482 7.449-18.893 4.21-2.623 8.117-2.824 12.983-2.855l2.728-.072c4.18-.097 8.36-.113 12.54-.163"/><path fill="#FCFCFC" d="M739.75 207.25q1.863.75 3.73 1.498c3.51 1.409 7.015 2.829 10.52 4.252 21.373 8.647 41.928 11.093 64.969 8.504 16.307-1.83 34.564-2.487 50.031 3.496l2.648.84c16.435 5.625 28.139 18.357 36.352 33.16 6.854 14.13 8.09 27.701 3.262 42.71-6.008 15.663-16.437 26.344-31.602 33.38a323 323 0 0 1-4.472 1.91l-2.1.881C853.54 345.588 828.021 341.267 809 334l-2.605-.969a124 124 0 0 1-12.332-5.531c-5.2-2.657-10.54-4.627-16.063-6.5l-2.59-.879A891 891 0 0 0 769 318l-3-1c-14.783-1.146-20.971 2.874-32 12-5.046 4.048-10.03 7.46-16 10l-3.582 1.586c-10.81 3.987-26.962 2.936-37.4-1.638a469 469 0 0 1-17.355-8.619c-5.174-2.684-10.189-5.044-15.771-6.739-1.892-.59-1.892-.59-4.458-1.75-9.49-3.275-21.297-1.11-30.278 2.547-9.285 4.746-16.773 12.264-22.406 20.988C585 348 585 348 582 350c-2.77.232-5.438.352-8.21.371-.806.01-1.611.018-2.44.027a805 805 0 0 1-5.11.028c-2.599.011-5.196.06-7.795.111q-2.484.015-4.968.022l-2.346.059c-4.081-.034-5.89-.422-9.098-3.028-5.348-6.814-3.57-17.305-3.033-25.59 2.238-17.683 14.044-34.428 27.164-45.832 13.328-10.189 29.156-16.543 45.961-17.543 12.302-1.09 21.082-7.995 28.957-17.008 2.802-3.437 5.448-6.96 8.027-10.566 22.552-31.228 55.67-38.244 90.641-23.801M533.86 378.71l2.067-.02c2.25-.02 4.499-.024 6.749-.026l4.708-.02q4.934-.017 9.868-.015c4.203 0 8.406-.027 12.609-.061 3.242-.022 6.484-.026 9.726-.025q2.323-.005 4.646-.027c15.313-.14 15.313-.14 20.767 4.484 2.331 3.11 2.349 6.246 2.563 10.062l.222 3.785L608 401q.12 2.189.244 4.378c.268 4.873.513 9.747.756 14.622l.132 2.622c1.099 21.825 2.046 43.648 2.526 65.496l.05 2.096q.062 2.739.118 5.477c.26 7.901.924 15.79 1.484 23.674.655 9.288 1.211 18.575 1.642 27.877.22 4.67.48 9.332.833 13.994 2.233 30.136 2.233 30.136-2.663 37.644-4.796 4.56-10.32 6.973-16.502 9.148-3.613 1.34-6.48 3.192-9.69 5.32l-3.055 1.874a2476 2476 0 0 0-32.586 20.325 4326 4326 0 0 1-16.887 10.672 513 513 0 0 0-8.273 5.312l-1.78 1.148q-2.3 1.487-4.587 2.993c-3.172 1.525-5.284 1.67-8.762 1.328-1.748-1.748-1.128-4.176-1.13-6.551l-.009-3.605.006-3.942-.003-4.05q-.001-4.269.006-8.538.006-5.4-.004-10.802c-.035-25.288-.035-25.288.884-37.238.841-12.471.637-25.048.802-37.543q.08-5.766.167-11.532l.04-3.52c.092-6.02.4-11.942 1-17.931.441-5.023.556-10.057.706-15.096l.233-7.16.118-3.74c.599-18.788 1.252-37.557 2.51-56.314.442-6.726.747-13.426.846-20.165l.04-2.18c.06-3.428.1-6.85.095-10.279.154-9.946.154-9.946 2.986-13.548 4.623-3.87 7.506-4.519 13.568-4.557"/><path fill="#FBFBFC" d="m710.937 425.71 3.702-.04 4.006-.006 4.114-.02q4.314-.017 8.627-.015c3.675 0 7.35-.027 11.025-.061 2.834-.022 5.667-.026 8.501-.025 2.011-.004 4.022-.026 6.032-.047 11.426.057 11.426.057 16.056 4.504 2.037 3.056 2.277 3.89 2.455 7.37l.152 2.72.14 2.992.168 3.175c.184 3.518.353 7.037.522 10.555l.379 7.493c.376 7.513.732 15.026 1.083 22.54l.306 6.489q.312 6.6.62 13.201l.103 2.222c.378 8.181.734 16.362 1.037 24.547l.082 2.217.083 2.208.243 6.56c.323 8.75.786 17.468 1.466 26.199.35 4.62.625 9.244.887 13.87q.207 3.155.527 6.3C784.547 603.44 784.547 603.44 782 609c-4.793 5.354-11.217 8.557-17.558 11.747-3.082 1.581-5.861 3.397-8.723 5.347l-2.638 1.721-2.581 1.685-5.828 3.8q-4.166 2.717-8.33 5.436-7.425 4.848-14.872 9.661c-2.594 1.684-5.178 3.382-7.763 5.08l-5.145 3.335-2.385 1.583-2.236 1.437-1.947 1.273c-2.445 1.097-4.344 1.054-6.994.895-1.636-2.882-2.25-4.945-2.254-8.251l-.017-2.556.012-2.784-.01-2.955c-.01-3.249-.003-6.498.003-9.747l-.005-6.895q-.005-7.283.01-14.565c.011-6.064.005-12.127-.007-18.191-.049-30.042.592-59.981 2.03-89.988.32-6.718.581-13.437.836-20.158l.24-6.111.342-8.77c.19-4.89.385-9.777.598-14.665.154-3.54.271-7.08.362-10.622l.169-4.87c.01-.73.02-1.457.032-2.207.194-4.803 1.259-7.283 4.659-10.665 3.47-2.313 4.84-2.262 8.937-2.29"/><path fill="#6593C2" d="M511 549h1c.206 31.32.206 31.32-1 45h-1c-.197-4.083-.381-8.166-.562-12.25l-.17-3.512-.147-3.379-.143-3.11c.02-2.499.353-4.367 1.022-6.749.224-2.753.414-5.493.563-8.25l.13-2.258q.158-2.745.307-5.492"/><path fill="#2465AB" d="m602 328 1 3-9 9-3-2q1.903-1.942 3.813-3.875l2.144-2.18C599 330 599 330 602 328"/><path fill="#EEF4F9" d="m1000 966 2 2-2.187 1.688c-4.85 3.987-8.865 8.461-12.813 13.312l-2-2z"/><path fill="#DEE8F3" d="m564 278 2 1a468 468 0 0 1-3.75 4.938l-2.11 2.777c-2.15 2.296-3.076 2.96-6.14 3.285 2.88-4.653 6.04-8.22 10-12"/><path fill="#2A69AB" d="M737 325h2v3c-1.426 1.316-1.426 1.316-3.312 2.563l-1.864 1.253L732 333l-3 2-3-1 1.898-1.46 2.477-1.915 2.46-1.898c2.207-1.695 2.207-1.695 4.165-3.727"/><path fill="#3E75B0" d="M708 973c5.823-.597 9.92 1.472 15 4v2c-3.662-.627-6.882-1.645-10.312-3.062l-2.676-1.098L708 974z"/><path fill="#618FC1" d="M114 660h1v5l3 1v6h-1l-1 5h-1z"/><path fill="#2866A9" d="M131 469h2l-1 7-3 1c.875-6.875.875-6.875 2-8"/><path fill="#3371B2" d="M159 390c1.25 1.563 1.25 1.563 2 4-1.068 2.57-2.465 4.653-4 7h-2q.716-2.188 1.438-4.375l.808-2.46C158 392 158 392 159 390"/><path fill="#2D6CAE" d="m895 324 2 1c-3.083 4.228-3.083 4.228-5 6-2.812.375-2.812.375-5 0l2.313-1.812c2.035-1.658 3.885-3.291 5.687-5.188"/><path fill="#B4CBE3" d="M1135 682h1c.081 2.27.14 4.541.188 6.813l.105 3.832C1136 696 1136 696 1133 699z"/><path fill="#2A6AAF" d="M888 1018c3.571 1.88 5.547 3.17 7 7h-3c-4-4.343-4-4.343-4-7"/><path fill="#407CBB" d="M945 998c1.62 2.572 2.044 3.677 1.625 6.75L946 1007l-3-1z"/><path fill="#E6EEF6" d="m992 974 2 1-7 8-2-2z"/><path fill="#316FB1" d="m781 906 2 1v2h-2v2h-6l2.438-1.937c1.837-1.469 1.837-1.469 3.562-3.063"/><path fill="#326FAF" d="m791 898 2 1-4 5-4-1z"/><path fill="#C8D8E9" d="M542 311c1.063 1.813 1.063 1.813 2 4l-1 3h-2l-1 3c.458-3.47.891-6.674 2-10"/><path fill="#3976B4" d="m435 127-1 3c-2.375.625-2.375.625-5 1l-2-2c2.906-1.257 4.796-2 8-2"/><path fill="#2D6DB1" d="m353 1031 2 3-5 5c0-3.576 1.088-5.053 3-8"/></svg>