<?xml version="1.0" encoding="UTF-8"?>
<svg version="1.1" xmlns="http://www.w3.org/2000/svg" width="1024" height="1024">
<path d="M0 0 C3.22830802 1.39602509 3.82944504 2.81924645 5.3125 6 C5.59536124 8.85040196 5.71629821 11.47839866 5.69104004 14.32571411 C5.69557017 15.16091422 5.7001003 15.99611433 5.7047677 16.85662353 C5.71638923 19.65343516 5.70674581 22.44976831 5.69726562 25.24658203 C5.70137075 27.25228179 5.70683126 29.25797916 5.71354675 31.26367188 C5.72527383 35.58146038 5.7277554 39.89912105 5.72319031 44.21692276 C5.71638876 51.04001661 5.7322337 57.86294174 5.75158691 64.68600464 C5.79268359 80.39834275 5.80399822 96.11067631 5.81511688 111.82305908 C5.82561427 126.22820412 5.84233081 140.63326831 5.88321257 155.03836334 C5.90161284 161.82574707 5.90544566 168.61293849 5.89827728 175.40034127 C5.89675981 179.61568506 5.9075112 183.83093184 5.92165565 188.04624939 C5.92567187 190.00585948 5.92451035 191.96548779 5.91788292 193.92509079 C5.9095504 196.5930508 5.9194349 199.26033439 5.93395996 201.92825317 C5.92706603 202.7098575 5.92017209 203.49146183 5.91306925 204.29675114 C5.92160455 208.36797907 5.92160455 208.36797907 7.70139313 211.91781425 C9.70287486 213.26221607 11.70309924 214.51678258 13.8125 215.6875 C14.5859375 216.12449219 15.359375 216.56148437 16.15625 217.01171875 C18.37170857 218.20832736 18.37170857 218.20832736 21.3125 218 C21.3125 218.66 21.3125 219.32 21.3125 220 C21.96089844 220.23460937 22.60929688 220.46921875 23.27734375 220.7109375 C27.29886659 222.41892017 31.06104092 224.49947493 34.875 226.625 C35.66986816 227.06650391 36.46473633 227.50800781 37.28369141 227.96289062 C43.02784032 231.19085383 48.51776065 234.64411281 53.9296875 238.40625 C56.01260143 239.79941211 58.07734011 240.88482345 60.3125 242 C62.08180221 243.61764773 63.68353209 245.24793628 65.3125 247 C66.02019531 247.72574219 66.72789062 248.45148438 67.45703125 249.19921875 C75.34919464 257.53637974 80.86221584 266.45743959 81.4140625 278.15234375 C80.05002677 308.84314773 56.19665558 341.03670713 37.22265625 363.6953125 C35.30029224 365.95474256 35.30029224 365.95474256 33.68359375 368.3046875 C33.23113281 368.86414063 32.77867187 369.42359375 32.3125 370 C31.6525 370 30.9925 370 30.3125 370 C30.03019531 369.40058594 29.74789062 368.80117188 29.45703125 368.18359375 C24.83427069 358.6533865 19.57431419 349.49447351 14.3359375 340.29296875 C13.81741211 339.38208496 13.29888672 338.47120117 12.76464844 337.53271484 C11.86007037 335.95502605 10.94795723 334.38160391 10.02441406 332.81494141 C7.3125 328.20087126 7.3125 328.20087126 7.3125 326 C6.6525 326 5.9925 326 5.3125 326 C3.24825578 322.60006834 3.24825578 322.60006834 3.49609375 320.28515625 C4.68067212 316.96947038 6.54834949 314.13574786 8.4375 311.1875 C8.86619385 310.50896973 9.2948877 309.83043945 9.73657227 309.13134766 C12.52200748 304.74361936 15.35970066 300.39072238 18.20703125 296.04296875 C18.87524902 295.02243408 19.5434668 294.00189941 20.23193359 292.95043945 C21.557978 290.92960938 22.88762557 288.9111382 24.22119141 286.89526367 C31.06400614 277.28897213 31.06400614 277.28897213 32.3125 266 C30.68423912 263.88326085 29.36964291 262.6277851 27.3125 261 C26.68859375 260.46246094 26.0646875 259.92492187 25.421875 259.37109375 C19.65164626 254.53903157 13.50521078 250.26827811 7.3125 246 C6.03802002 245.11731445 6.03802002 245.11731445 4.73779297 244.21679688 C3.93744629 243.67087891 3.13709961 243.12496094 2.3125 242.5625 C1.590625 242.06878906 0.86875 241.57507813 0.125 241.06640625 C-1.62430462 239.83096623 -1.62430462 239.83096623 -3.6875 240 C-4.22117187 239.45085937 -4.75484375 238.90171875 -5.3046875 238.3359375 C-8.48678847 235.21643524 -12.05801085 233.00132641 -15.8125 230.625 C-16.57296631 230.14184326 -17.33343262 229.65868652 -18.11694336 229.16088867 C-19.62492439 228.20485471 -21.1342478 227.25093425 -22.64501953 226.29931641 C-24.36141964 225.20743482 -26.05647659 224.08210382 -27.74609375 222.94921875 C-32.99746336 219.51657621 -36.38372396 218.02182786 -42.6875 219 C-45.03011608 220.37926773 -45.03011608 220.37926773 -46.6875 222 C-47.3475 222 -48.0075 222 -48.6875 222 C-48.6875 222.66 -48.6875 223.32 -48.6875 224 C-50.52840705 225.5626304 -52.37291304 227.00594614 -54.3125 228.4375 C-55.50968941 229.33908095 -56.70628381 230.24145245 -57.90234375 231.14453125 C-58.52608887 231.6132666 -59.14983398 232.08200195 -59.79248047 232.56494141 C-62.84994467 234.88029499 -65.86191037 237.25238389 -68.875 239.625 C-69.46047607 240.08165039 -70.04595215 240.53830078 -70.64916992 241.00878906 C-73.33683069 243.11129111 -75.96453534 245.23956745 -78.546875 247.47265625 C-79.82304688 248.56900391 -79.82304688 248.56900391 -81.125 249.6875 C-82.20587891 250.65236328 -82.20587891 250.65236328 -83.30859375 251.63671875 C-86.70681165 253.58413755 -88.7995785 253.43953892 -92.6875 253 C-95.90055712 252.01729975 -98.96530841 250.73471283 -102.0625 249.4375 C-116.53840141 243.63568678 -131.56329512 239.72232522 -146.6875 236 C-146.84605469 234.25396484 -146.84605469 234.25396484 -147.0078125 232.47265625 C-147.71904842 226.09524081 -148.94194708 219.8115613 -150.16162109 213.51586914 C-150.56207545 211.43970108 -150.9511697 209.3616045 -151.33984375 207.28320312 C-153.11193656 194.98581093 -153.11193656 194.98581093 -159.6875 185 C-162.88227297 184.22160934 -162.88227297 184.22160934 -166.625 183.875 C-167.32157715 183.79717285 -168.0181543 183.7193457 -168.73583984 183.63916016 C-187.88212462 181.631515 -207.07397263 181.7084039 -226.27709961 182.68969727 C-227.94151883 182.77235132 -229.60626005 182.84873372 -231.27124023 182.91918945 C-233.71422023 183.02263502 -236.15572327 183.14399993 -238.59765625 183.26953125 C-239.33726089 183.29779495 -240.07686554 183.32605865 -240.83888245 183.35517883 C-245.23102951 183.60672129 -248.32542978 184.0848515 -251.6875 187 C-254.59523385 192.28602966 -255.52968225 197.63823696 -256.484375 203.546875 C-256.80593251 205.3791453 -257.12889054 207.21117027 -257.453125 209.04296875 C-257.95190013 211.90698286 -258.44097826 214.77145287 -258.90625 217.64111328 C-259.36255324 220.42789024 -259.85762769 223.20547164 -260.359375 225.984375 C-260.48882507 226.84375671 -260.61827515 227.70313843 -260.75164795 228.58856201 C-261.19069382 230.92508806 -261.63056702 232.86968077 -262.6875 235 C-266.01708984 236.96923828 -266.01708984 236.96923828 -269.6875 238 C-270.54585449 238.27730957 -271.40420898 238.55461914 -272.28857422 238.84033203 C-273.50311279 239.17073486 -273.50311279 239.17073486 -274.7421875 239.5078125 C-275.67482422 239.76844482 -276.60746094 240.02907715 -277.56835938 240.29760742 C-279.05045898 240.70716675 -279.05045898 240.70716675 -280.5625 241.125 C-287.34064932 243.01489884 -293.97809319 245.04387902 -300.5390625 247.59765625 C-301.65168457 248.02739746 -302.76430664 248.45713867 -303.91064453 248.89990234 C-306.05493257 249.74247238 -308.18946173 250.61042524 -310.31201172 251.50634766 C-317.48670204 254.3132196 -317.48670204 254.3132196 -321.07421875 253.37744141 C-323.06870008 252.37611369 -324.84121574 251.24690205 -326.6875 250 C-327.6775 249.67 -328.6675 249.34 -329.6875 249 C-330.22375 248.29875 -330.76 247.5975 -331.3125 246.875 C-333.92024443 243.71825675 -336.67728869 241.54402109 -339.9296875 239.0859375 C-342.59950455 237.06655746 -345.23510244 235.01017879 -347.86352539 232.9375 C-349.07944992 231.9792128 -350.29739132 231.02347918 -351.51733398 230.0703125 C-354.15830801 228.00598758 -356.77205283 225.92902045 -359.33984375 223.7734375 C-362.48885373 221.1573369 -365.20509549 219.20024338 -369 217.625 C-378.97418536 218.63932394 -388.84721416 227.67505873 -396.9375 233.25 C-398.02361572 233.99435303 -399.10973145 234.73870605 -400.22875977 235.50561523 C-402.39140747 236.98829403 -404.55298088 238.47254124 -406.71337891 239.95849609 C-409.30649091 241.73846675 -411.90636259 243.50755957 -414.51171875 245.26953125 C-421.1626522 249.77887177 -427.61753716 254.35063375 -433.76953125 259.5390625 C-435.6875 261 -435.6875 261 -438.6875 262 C-440.30638471 265.17550463 -440.79197093 266.52111801 -440.6875 270 C-436.72744671 281.60600234 -428.33352256 296.35397744 -419.6875 305 C-419.01407953 306.32993499 -418.34835066 307.66377449 -417.6875 309 C-416.16970055 311.28676415 -414.60176136 313.53318182 -413.02734375 315.78125 C-411.7077461 317.96647293 -410.85990412 319.45050872 -410.6875 322 C-411.32981567 322.62950562 -411.32981567 322.62950562 -411.98510742 323.27172852 C-414.15922638 325.47889732 -415.35097802 327.81887131 -416.796875 330.55859375 C-417.68246094 332.22245117 -417.68246094 332.22245117 -418.5859375 333.91992188 C-419.19695312 335.08072266 -419.80796875 336.24152344 -420.4375 337.4375 C-424.54487407 345.20328193 -428.72163385 352.89024661 -433.22192383 360.43676758 C-435.00066696 363.54771613 -436.39739058 366.66089326 -437.6875 370 C-444.56306787 367.17805491 -449.4762961 359.92397501 -453.5625 353.9375 C-455.42316424 350.76405691 -455.42316424 350.76405691 -458.6875 350 C-459.22509766 348.19213867 -459.22509766 348.19213867 -459.6875 346 C-461.30407707 342.99616059 -463.20291834 340.17101078 -465.0625 337.3125 C-465.5575 336.52810547 -466.0525 335.74371094 -466.5625 334.93554688 C-467.04460937 334.18982422 -467.52671875 333.44410156 -468.0234375 332.67578125 C-468.68158447 331.6535144 -468.68158447 331.6535144 -469.35302734 330.6105957 C-470.69304911 328.70439798 -470.69304911 328.70439798 -473.6875 328 C-473.749375 327.175 -473.81125 326.35 -473.875 325.5 C-474.89891456 321.08929114 -476.82327812 317.51558698 -479.6875 314 C-480.3475 314 -481.0075 314 -481.6875 314 C-481.79707031 313.43152344 -481.90664063 312.86304688 -482.01953125 312.27734375 C-483.06688166 307.17683242 -484.48021753 302.715558 -486.6875 298 C-487.3475 298 -488.0075 298 -488.6875 298 C-489.1825 296.515 -489.1825 296.515 -489.6875 295 C-490.0175 294.67 -490.3475 294.34 -490.6875 294 C-490.6875 293.34 -490.6875 292.68 -490.6875 292 C-490.0275 292 -489.3675 292 -488.6875 292 C-488.96464844 291.28457031 -489.24179687 290.56914063 -489.52734375 289.83203125 C-493.62134899 278.56987448 -495.67908059 267.31771572 -490.6875 256 C-484.07424451 244.78376839 -472.92554131 236.85094486 -462.2421875 229.8125 C-459.61702133 228.25129602 -459.61702133 228.25129602 -458.6875 226 C-458.0275 226 -457.3675 226 -456.6875 226 C-457.0175 204.55 -457.3475 183.1 -457.6875 161 C-458.0175 161 -458.3475 161 -458.6875 161 C-458.6875 158.69 -458.6875 156.38 -458.6875 154 C-458.3575 154 -458.0275 154 -457.6875 154 C-457.6781543 152.72882324 -457.66880859 151.45764648 -457.65917969 150.14794922 C-457.6192135 145.41761638 -457.55343586 140.68792938 -457.47998047 135.95800781 C-457.45180934 133.91349605 -457.43057565 131.86887616 -457.41650391 129.82421875 C-457.39502113 126.87964678 -457.3483431 123.93636959 -457.296875 120.9921875 C-457.29564636 120.0825827 -457.29441772 119.17297791 -457.29315186 118.23580933 C-457.1660855 112.69116036 -456.51136982 109.30521293 -452.6875 105 C-449.96459961 102.93286133 -449.96459961 102.93286133 -446.83984375 101.08203125 C-445.99395691 100.57381332 -445.99395691 100.57381332 -445.13098145 100.05532837 C-443.30299901 98.96146023 -441.46448481 97.88689173 -439.625 96.8125 C-438.34385056 96.05127402 -437.06333779 95.28897554 -435.78344727 94.52563477 C-432.09550126 92.3319707 -428.39388431 90.16232892 -424.6875 88 C-423.78386719 87.47180664 -422.88023437 86.94361328 -421.94921875 86.39941406 C-418.18938525 84.20720345 -414.41973767 82.03279093 -410.64453125 79.8671875 C-405.08775737 76.66919333 -399.58130457 73.38676169 -394.07147217 70.1088562 C-384.59283641 64.4703194 -375.08292738 58.89550558 -365.49121094 53.45092773 C-357.6594752 49.0014907 -349.88315461 44.45926828 -342.1184082 39.89404297 C-340.24550508 38.79630605 -338.36854882 37.70545065 -336.48730469 36.62207031 C-334.54755102 35.49827162 -332.62185231 34.34999333 -330.70800781 33.18261719 C-329.74475586 32.61446289 -328.78150391 32.04630859 -327.7890625 31.4609375 C-326.92877441 30.94063965 -326.06848633 30.4203418 -325.18212891 29.88427734 C-322.6875 29 -322.6875 29 -319.99365234 29.65869141 C-317.6875 31 -317.6875 31 -315.6875 34 C-315.41575623 36.7769928 -315.41575623 36.7769928 -315.38452148 40.18383789 C-315.36787949 41.45848404 -315.35123749 42.73313019 -315.33409119 44.04640198 C-315.32553024 45.43848636 -315.31703261 46.83057113 -315.30859375 48.22265625 C-315.2924192 49.6484847 -315.27523924 51.07430206 -315.25709534 52.50010681 C-315.2114099 56.25248092 -315.17660296 60.0048698 -315.14489746 63.75738525 C-315.09301877 69.76751588 -315.027933 75.7774837 -314.95668221 81.78741264 C-314.93382268 83.8891086 -314.91756956 85.9907838 -314.90196228 88.09254456 C-314.88847244 89.36403854 -314.8749826 90.63553253 -314.86108398 91.94555664 C-314.85157211 93.06901993 -314.84206024 94.19248322 -314.83226013 95.34999084 C-314.8649868 97.97649419 -314.8649868 97.97649419 -313.6875 100 C-308.43074595 100.30775236 -305.38281715 99.74389622 -300.86328125 97.0625 C-299.76677246 96.42304443 -298.67026367 95.78358887 -297.54052734 95.12475586 C-296.36027054 94.41663893 -295.18009704 93.70838314 -294 93 C-292.75826208 92.26996817 -291.51556712 91.541562 -290.27197266 90.81469727 C-287.68914688 89.30342329 -285.1105735 87.78524373 -282.53466797 86.26220703 C-276.58331843 82.75188969 -270.56921314 79.35183333 -264.5625 75.9375 C-255.58855225 70.81871961 -246.6330818 65.66818073 -237.6875 60.5 C-227.30717692 54.5033452 -216.92021409 48.51801202 -206.49584961 42.59814453 C-201.48364568 39.75016415 -196.48197534 36.89534849 -191.54296875 33.921875 C-190.80191895 33.48278809 -190.06086914 33.04370117 -189.29736328 32.59130859 C-187.985998 31.81224565 -186.68263702 31.01944856 -185.39013672 30.20947266 C-182.47186318 28.49407473 -181.18885549 27.87208214 -177.83984375 28.7265625 C-175.6875 30 -175.6875 30 -174.6875 31 C-174.57454687 32.8606728 -174.53068007 34.7255769 -174.51391602 36.58959961 C-174.50042618 37.78431381 -174.48693634 38.97902802 -174.47303772 40.20994568 C-174.45738014 42.16143272 -174.45738014 42.16143272 -174.44140625 44.15234375 C-174.42591424 45.49134647 -174.40970543 46.83034107 -174.39280701 48.16932678 C-174.32190971 53.86921736 -174.26186441 59.56918601 -174.21069336 65.26928711 C-174.17894211 68.7524109 -174.13767633 72.23531629 -174.09049797 75.71826363 C-174.066636 77.69580347 -174.05371914 79.67346548 -174.04090881 81.65110779 C-174.02426682 82.84897415 -174.00762482 84.04684052 -173.99047852 85.28100586 C-173.98017105 86.33944199 -173.96986359 87.39787811 -173.95924377 88.48838806 C-173.93451609 91.17094559 -173.93451609 91.17094559 -171.6875 93 C-165.63786 94.0222126 -161.4150648 91.0484411 -156.375 88.125 C-155.49126709 87.62540771 -154.60753418 87.12581543 -153.69702148 86.61108398 C-151.01775533 85.08979556 -148.35061353 83.54936537 -145.6875 82 C-144.94467773 81.56800293 -144.20185547 81.13600586 -143.43652344 80.69091797 C-140.00373257 78.6872597 -136.58174294 76.66601696 -133.1640625 74.63671875 C-124.73604079 69.64811605 -116.20063192 64.84136585 -107.6875 60 C-107.6875 59.34 -107.6875 58.68 -107.6875 58 C-106.97489014 57.89421631 -106.26228027 57.78843262 -105.52807617 57.67944336 C-102.37029882 56.92412799 -100.05703178 55.73439307 -97.23828125 54.12890625 C-95.71944336 53.26749023 -95.71944336 53.26749023 -94.16992188 52.38867188 C-93.12384766 51.78603516 -92.07777344 51.18339844 -91 50.5625 C-89.94232422 49.96373047 -88.88464844 49.36496094 -87.79492188 48.74804688 C-82.41131542 45.81904933 -82.41131542 45.81904933 -77.6875 42 C-74.6875 40 -74.6875 40 -71.6875 39 C-70.31799009 38.30717879 -68.96257166 37.58623602 -67.6171875 36.84765625 C-66.81265137 36.40647461 -66.00811523 35.96529297 -65.17919922 35.51074219 C-64.31568848 35.03282227 -63.45217773 34.55490234 -62.5625 34.0625 C-61.21115967 33.31661621 -61.21115967 33.31661621 -59.83251953 32.55566406 C-53.69036423 29.14949086 -47.61078697 25.65148412 -41.57055664 22.06835938 C-35.32338571 18.36353184 -29.0458312 14.7120589 -22.75714111 11.07824707 C-21.03571346 10.08314481 -19.31545138 9.0860271 -17.59521484 8.08886719 C-15.99540771 7.16509277 -15.99540771 7.16509277 -14.36328125 6.22265625 C-13.41364502 5.67359619 -12.46400879 5.12453613 -11.4855957 4.55883789 C-3.30253524 0 -3.30253524 0 0 0 Z M-481.6875 309 C-480.6875 311 -480.6875 311 -480.6875 311 Z M-480.6875 311 C-479.6875 313 -479.6875 313 -479.6875 313 Z " fill="#191A1E" transform="translate(714.6875,422)"/>
<path d="M0 0 C44.66926667 1.03126751 86.48571089 8.72042935 123 36 C123.845625 36.60070312 124.69125 37.20140625 125.5625 37.8203125 C129.66066022 40.76586516 129.66066022 40.76586516 131 42 C131 42.66 131 43.32 131 44 C131.53625 44.21398437 132.0725 44.42796875 132.625 44.6484375 C153.13185234 56.31845545 167.19167929 84.83318264 176.3125 105.4375 C176.71621826 106.33170654 177.11993652 107.22591309 177.53588867 108.1472168 C177.89142822 108.98422119 178.24696777 109.82122559 178.61328125 110.68359375 C178.93079346 111.42150146 179.24830566 112.15940918 179.57543945 112.91967773 C180 115 180 115 179.38842773 117.09179688 C177.60171562 119.54738715 175.87511501 120.46635457 173.171875 121.84765625 C171.65400391 122.62375244 171.65400391 122.62375244 170.10546875 123.41552734 C168.44451172 124.23077881 168.44451172 124.23077881 166.75 125.0625 C165.59628906 125.63178223 164.44257812 126.20106445 163.25390625 126.78759766 C144.28109454 135.99674708 124.35311834 142.81409735 103.89453125 147.89599609 C102.88261719 148.14816895 101.87070312 148.4003418 100.828125 148.66015625 C99.9402832 148.87293213 99.05244141 149.08570801 98.13769531 149.30493164 C95.8166103 149.88085228 95.8166103 149.88085228 94 152 C94 151.34 94 150.68 94 150 C92.48212891 150.36351562 92.48212891 150.36351562 90.93359375 150.734375 C75.44627645 154.28351469 59.75789475 156.11891171 44 158 C44 158.66 44 159.32 44 160 C32 160 20 160 8 160 C8 159.34 8 158.68 8 158 C7.11368896 158.02356567 7.11368896 158.02356567 6.20947266 158.04760742 C-16.42319163 158.56208483 -38.09468525 156.01444732 -60.2824707 151.6262207 C-61.35070068 151.41570068 -62.41893066 151.20518066 -63.51953125 150.98828125 C-64.45901611 150.79790283 -65.39850098 150.60752441 -66.36645508 150.41137695 C-68.95861071 150.00646528 -71.38135114 149.92502906 -74 150 C-74 149.34 -74 148.68 -74 148 C-75.13824219 147.88785156 -76.27648437 147.77570313 -77.44921875 147.66015625 C-82.07880775 147.08184011 -86.37292396 145.83637789 -90.8125 144.4375 C-96.29741977 142.63230051 -96.29741977 142.63230051 -102 142 C-102 141.34 -102 140.68 -102 140 C-103.27617187 139.75121094 -104.55234375 139.50242187 -105.8671875 139.24609375 C-111.19899864 138.0551215 -116.09400042 136.16586354 -121.125 134.0625 C-122.52516357 133.48447632 -122.52516357 133.48447632 -123.95361328 132.89477539 C-134.82587572 128.33890881 -145.42533471 123.20236027 -156 118 C-149.04809928 93.71765173 -136.05392976 71.66980359 -118 54 C-117.175 53.175 -116.35 52.35 -115.5 51.5 C-114.675 50.675 -113.85 49.85 -113 49 C-112.5359375 48.50113281 -112.071875 48.00226562 -111.59375 47.48828125 C-99.82405602 35.1127942 -84.29669569 25.35578809 -69 18 C-68.34 18 -67.68 18 -67 18 C-66.67 17.34 -66.34 16.68 -66 16 C-63.93725586 15.10205078 -63.93725586 15.10205078 -61.21484375 14.1953125 C-59.71800049 13.69378662 -59.71800049 13.69378662 -58.19091797 13.18212891 C-57.11729004 12.83327637 -56.04366211 12.48442383 -54.9375 12.125 C-53.8458252 11.76712402 -52.75415039 11.40924805 -51.62939453 11.04052734 C-34.68518818 5.55894548 -17.94987088 1.40824601 0 2 C0 1.34 0 0.68 0 0 Z " fill="#191A1E" transform="translate(499,720)"/>
<path d="M0 0 C11.62009891 7.14596968 24.65512128 10.95149965 38.37792969 10.24169922 C38.04792969 10.90169922 37.71792969 11.56169922 37.37792969 12.24169922 C47.11214305 13.63446067 54.81074279 12.63881199 64.19042969 9.86669922 C82.11156857 4.77761264 99.91229352 2.50888114 117.37792969 11.24169922 C130.26973327 20.12712692 138.87927043 28.9925991 144.01855469 44.12841797 C146.23594587 57.16764223 144.3841695 69.70233239 136.87792969 80.67919922 C135.73327999 82.21667189 134.56641179 83.73785234 133.37792969 85.24169922 C132.77207031 86.06669922 132.16621094 86.89169922 131.54199219 87.74169922 C123.81818317 96.66451108 112.02540126 102.93231281 100.31542969 103.86669922 C99.39632813 103.90021484 98.47722656 103.93373047 97.53027344 103.96826172 C96.82 104.05849609 96.10972656 104.14873047 95.37792969 104.24169922 C95.04792969 104.90169922 94.71792969 105.56169922 94.37792969 106.24169922 C73.79539642 104.57403128 57.63812446 98.89849653 38.90478516 90.30151367 C31.87915612 87.3548223 23.21275073 86.72244184 16.06542969 89.61669922 C12.53559864 91.39435781 9.35745109 93.60488341 6.11499023 95.84790039 C5.16233276 96.50689331 5.16233276 96.50689331 4.19042969 97.17919922 C3.55339111 97.62046143 2.91635254 98.06172363 2.26000977 98.51635742 C-11.25797641 107.61360134 -27.03679857 110.34619098 -42.99707031 107.24169922 C-50.44859114 105.33338291 -57.0071141 101.7846286 -63.76660156 98.2109375 C-72.77040332 93.39056384 -72.77040332 93.39056384 -82.62207031 91.24169922 C-83.56373047 91.14888672 -83.56373047 91.14888672 -84.52441406 91.05419922 C-94.58128406 90.47224652 -103.86786588 94.03833568 -111.62207031 100.24169922 C-112.28207031 100.24169922 -112.94207031 100.24169922 -113.62207031 100.24169922 C-113.62207031 100.90169922 -113.62207031 101.56169922 -113.62207031 102.24169922 C-114.28207031 102.24169922 -114.94207031 102.24169922 -115.62207031 102.24169922 C-115.99332031 103.07701172 -115.99332031 103.07701172 -116.37207031 103.92919922 C-118.18446805 107.28213503 -120.15321523 110.50727168 -123.62207031 112.24169922 C-125.40768023 112.49678635 -127.20122061 112.69818785 -128.99707031 112.86669922 C-129.95355469 112.96208984 -130.91003906 113.05748047 -131.89550781 113.15576172 C-134.62207031 113.24169922 -134.62207031 113.24169922 -136.4465332 112.74169922 C-139.10334155 112.13108947 -141.43403368 112.21264585 -144.15722656 112.32763672 C-145.21361328 112.37146484 -146.27 112.41529297 -147.35839844 112.46044922 C-148.45603516 112.51201172 -149.55367188 112.56357422 -150.68457031 112.61669922 C-151.78607422 112.66052734 -152.88757813 112.70435547 -154.02246094 112.74951172 C-159.91712811 112.93703555 -159.91712811 112.93703555 -165.62207031 114.24169922 C-170.65265174 104.49494771 -166.57001036 91.16770828 -163.74316406 81.11669922 C-157.9052475 63.92049312 -146.45439261 51.6247109 -130.62207031 43.24169922 C-129.86410156 42.82275391 -129.10613281 42.40380859 -128.32519531 41.97216797 C-116.56622461 36.07057929 -103.46276394 35.78611613 -90.62207031 36.24169922 C-90.62207031 35.58169922 -90.62207031 34.92169922 -90.62207031 34.24169922 C-89.13707031 34.73669922 -89.13707031 34.73669922 -87.62207031 35.24169922 C-87.13738281 34.06994141 -86.65269531 32.89818359 -86.15332031 31.69091797 C-80.22242203 17.65625322 -73.58175853 7.00471001 -61.62207031 -2.75830078 C-61.00203125 -3.28166016 -60.38199219 -3.80501953 -59.74316406 -4.34423828 C-40.27908185 -17.32029309 -18.30654008 -11.3156781 0 0 Z " fill="#18191E" transform="translate(610.6220703125,157.75830078125)"/>
<path d="M0 0 C3.78057631 0.36852677 7.46521475 -0.14573472 11.234375 -0.51171875 C17.34750153 -1.02951834 23.43620134 -1.12285727 29.51171875 -0.2109375 C33.00061277 0.18942739 35.73510478 -0.11603105 39.17578125 -0.6328125 C44.39012683 -0.97411512 49.52246509 0.0400418 53.88671875 2.9140625 C57.56203902 8.82653424 56.67157332 17.72036165 56.97265625 24.46972656 C57.02971741 25.68868622 57.08677856 26.90764587 57.14556885 28.1635437 C57.30087262 31.49477553 57.45320885 34.82611825 57.60425568 38.15754414 C57.76411552 41.66681094 57.92791445 45.17589386 58.09130859 48.68499756 C58.40084566 55.34500239 58.707063 62.00515534 59.0119915 68.66537261 C59.45670659 78.37570841 59.90628945 88.08581902 60.35598755 97.79592514 C60.423036 99.2438125 60.49008313 100.69169992 60.55712891 102.1395874 C60.58995531 102.84835077 60.62278172 103.55711414 60.65660286 104.28735518 C60.84881415 108.4398476 61.04004676 112.5923836 61.23040199 116.7449615 C61.87979879 130.90827803 62.54981044 145.06947994 63.32421875 159.2265625 C63.98421875 159.5565625 64.64421875 159.8865625 65.32421875 160.2265625 C60.95245115 165.19531517 55.78045495 168.1450579 50.07421875 171.4140625 C49.0898584 171.98648682 48.10549805 172.55891113 47.09130859 173.14868164 C45.09674958 174.30842563 43.10050861 175.46528211 41.10253906 176.61914062 C38.03381003 178.39458104 34.97854705 180.19167734 31.92651367 181.99560547 C28.39740512 184.08108683 24.86055251 186.15336416 21.32421875 188.2265625 C20.39818848 188.76958008 19.4721582 189.31259766 18.51806641 189.87207031 C13.38938219 192.8774245 8.2560056 195.87419719 3.11328125 198.85546875 C-0.47452794 200.9358793 -4.04206393 203.0435255 -7.58984375 205.19140625 C-9.01420179 206.03666249 -10.4386718 206.88173007 -11.86328125 207.7265625 C-12.49177979 208.11851807 -13.12027832 208.51047363 -13.76782227 208.91430664 C-15.53125 209.9453125 -15.53125 209.9453125 -18.67578125 211.2265625 C-21.37231445 210.30664063 -21.37231445 210.30664063 -23.67578125 209.2265625 C-23.94394321 187.85659105 -23.20854258 166.56971549 -22.32814074 145.2225039 C-22.17454863 141.48405645 -22.02427306 137.74547823 -21.87389123 134.00690049 C-21.51929265 125.19441211 -21.15895615 116.38217162 -20.79492188 107.57006836 C-20.42067513 98.50809438 -20.05672608 89.44574631 -19.69759333 80.38316184 C-19.3868185 72.55046038 -19.06957704 64.71803878 -18.74718893 56.88580674 C-18.55558921 52.22922549 -18.36643179 47.57257868 -18.18361282 42.91564369 C-18.01212678 38.55414866 -17.83255061 34.19305988 -17.64680672 29.83214951 C-17.58023062 28.23756164 -17.51647737 26.64285292 -17.45582008 25.04802895 C-16.84978087 9.20080198 -16.84978087 9.20080198 -14.67578125 3.2265625 C-9.56710408 -0.17922228 -6.06876995 -0.99412232 0 0 Z " fill="#18191E" transform="translate(445.67578125,288.7734375)"/>
<path d="M0 0 C1.68722672 -0.01925285 1.68722672 -0.01925285 3.40853882 -0.03889465 C4.62417511 -0.04628159 5.8398114 -0.05366852 7.09228516 -0.0612793 C8.34135651 -0.06935104 9.59042786 -0.07742279 10.87734985 -0.08573914 C13.52194935 -0.09957813 16.16642426 -0.11059549 18.81103516 -0.11816406 C22.1928187 -0.12923124 25.57394474 -0.16364119 28.95549583 -0.20333576 C32.1885269 -0.23581389 35.42161581 -0.24028116 38.65478516 -0.2487793 C39.86637299 -0.26628738 41.07796082 -0.28379547 42.32626343 -0.30183411 C43.45738556 -0.29890854 44.58850769 -0.29598297 45.75390625 -0.29296875 C47.24257706 -0.30176811 47.24257706 -0.30176811 48.76132202 -0.31074524 C52.49067336 0.3519009 54.00019377 1.32081249 56.50634766 4.17700195 C57.37261107 7.10176044 57.5300121 9.99935813 57.69726562 13.03515625 C57.79918622 14.35885365 57.79918622 14.35885365 57.90316582 15.70929241 C58.04700881 17.58422037 58.18175286 19.45986538 58.30806732 21.33605576 C58.56212923 24.97623628 58.89041151 28.60769355 59.22101021 32.24158955 C59.64983974 36.9749577 60.04810422 41.71095519 60.45166016 46.4465332 C60.62812296 48.50868573 60.80462732 50.57083471 60.98117065 52.63298035 C61.346883 56.90936653 61.71141181 61.18585167 62.07519531 65.46240234 C62.5406537 70.93189738 63.01021636 76.40103191 63.48076057 81.87009144 C63.84480689 86.10872858 64.20616617 90.34759167 64.56676865 94.58652306 C64.73884951 96.60435804 64.91188359 98.62211199 65.0859108 100.63978004 C65.32799265 103.44988885 65.56631305 106.26029293 65.80371094 109.07080078 C65.87537476 109.89318237 65.94703857 110.71556396 66.02087402 111.56286621 C67.18251103 125.47681515 67.18251103 125.47681515 64.50634766 129.17700195 C62.7199707 130.5546875 62.7199707 130.5546875 60.51806641 131.8137207 C59.26340576 132.5425647 59.26340576 132.5425647 57.98339844 133.28613281 C57.06284668 133.80699463 56.14229492 134.32785645 55.19384766 134.86450195 C53.18463939 136.02579822 51.17552985 137.18726531 49.16650391 138.34887695 C48.08900879 138.96698242 47.01151367 139.58508789 45.90136719 140.22192383 C40.57093156 143.29154331 35.27281624 146.41572609 29.9708252 149.53411865 C27.5177828 150.97486799 25.06150109 152.41004541 22.60531616 153.84542847 C17.78826602 156.66070195 12.97756225 159.48538764 8.1864624 162.34465027 C6.50158744 163.3495265 4.81429655 164.35034844 3.12695312 165.35107422 C1.05282304 166.58158474 -1.01738496 167.81873803 -3.08300781 169.06347656 C-4.46383545 169.87957397 -4.46383545 169.87957397 -5.87255859 170.7121582 C-6.67250244 171.19048096 -7.47244629 171.66880371 -8.29663086 172.16162109 C-10.49365234 173.17700195 -10.49365234 173.17700195 -14.49365234 173.17700195 C-16.92517713 168.46608994 -16.68968472 164.27159142 -16.52294922 159.11914062 C-16.50204727 158.21604723 -16.48114532 157.31295383 -16.45960999 156.38249397 C-16.38756035 153.39045838 -16.3001489 150.39908395 -16.21240234 147.4074707 C-16.15787281 145.2939805 -16.10413483 143.18046974 -16.05114746 141.06694031 C-15.88082502 134.43649029 -15.68828091 127.8067756 -15.49365234 121.17700195 C-15.43379529 119.09287872 -15.3740595 117.008752 -15.31445312 114.92462158 C-14.93645607 101.7956803 -14.52097062 88.66809238 -14.09259033 75.54071045 C-13.95869526 71.41143925 -13.82807242 67.2820669 -13.69742584 63.15269184 C-13.56837965 59.0849313 -13.43753046 55.01723025 -13.30613708 50.94954491 C-13.24507005 49.05419649 -13.18446929 47.15883298 -13.12440491 45.26345253 C-12.9599004 40.09218797 -12.78126171 34.92174744 -12.58578491 29.75156021 C-12.48909326 27.04960276 -12.41082041 24.34739347 -12.33178711 21.64486694 C-12.26738851 19.84589858 -12.20222843 18.04695728 -12.13623047 16.24804688 C-12.10658833 15.0130833 -12.10658833 15.0130833 -12.07634735 13.75317097 C-11.87766691 8.90468105 -11.24225397 5.34086864 -8.49365234 1.17700195 C-5.40809084 0.14848145 -3.23521426 0.03214203 0 0 Z " fill="#191A1E" transform="translate(566.49365234375,322.822998046875)"/>
<path d="M0 0 C3.78057631 0.36852677 7.46521475 -0.14573472 11.234375 -0.51171875 C17.34750153 -1.02951834 23.43620134 -1.12285727 29.51171875 -0.2109375 C32.64747658 0.14890356 34.66840314 0.13201608 37.69921875 -0.3359375 C38.89546875 -0.4803125 40.09171875 -0.6246875 41.32421875 -0.7734375 C41.98421875 -0.1134375 42.64421875 0.5465625 43.32421875 1.2265625 C40.35421875 1.2265625 37.38421875 1.2265625 34.32421875 1.2265625 C34.32421875 1.8865625 34.32421875 2.5465625 34.32421875 3.2265625 C38.28421875 3.2265625 42.24421875 3.2265625 46.32421875 3.2265625 C46.32421875 3.5565625 46.32421875 3.8865625 46.32421875 4.2265625 C45.36701431 4.22323158 45.36701431 4.22323158 44.39047241 4.21983337 C37.73932455 4.19768285 31.0881872 4.1826151 24.43701172 4.17163086 C21.9558876 4.16660703 19.47476643 4.15978684 16.99365234 4.15112305 C13.42414622 4.13897214 9.8546793 4.13331462 6.28515625 4.12890625 C4.62545303 4.12116432 4.62545303 4.12116432 2.93222046 4.11326599 C-2.04740444 4.11290456 -6.78455255 4.15405484 -11.67578125 5.2265625 C-11.67578125 3.89322917 -11.67578125 2.55989583 -11.67578125 1.2265625 C-7.3997975 -0.59073059 -4.54949899 -0.74525126 0 0 Z " fill="#202023" transform="translate(445.67578125,288.7734375)"/>
<path d="M0 0 C17.16 0 34.32 0 52 0 C52 0.33 52 0.66 52 1 C49.36 1.33 46.72 1.66 44 2 C45.98 2.33 47.96 2.66 50 3 C50 3.33 50 3.66 50 4 C41 4 32 4 23 4 C23 3.34 23 2.68 23 2 C22.01773437 2.01740234 22.01773437 2.01740234 21.015625 2.03515625 C13.9563366 2.10495147 7.02424012 1.68648769 0 1 C0 0.67 0 0.34 0 0 Z " fill="#19181D" transform="translate(484,876)"/>
<path d="M0 0 C1.5 1.375 1.5 1.375 3 3 C3 3.66 3 4.32 3 5 C2.34 5 1.68 5 1 5 C0.67 11.93 0.34 18.86 0 26 C5.94 26.33 11.88 26.66 18 27 C18 27.33 18 27.66 18 28 C16.87980469 28.06058594 15.75960938 28.12117188 14.60546875 28.18359375 C13.13280016 28.26801424 11.66014456 28.35266149 10.1875 28.4375 C9.08051758 28.49647461 9.08051758 28.49647461 7.95117188 28.55664062 C4.76928658 28.74381035 2.03837622 28.98720793 -1 30 C-5.73855589 20.81904796 -1.96852237 9.54967696 0 0 Z " fill="#2B2A2E" transform="translate(446,242)"/>
<path d="M0 0 C0.8775293 -0.02707031 1.75505859 -0.05414063 2.65917969 -0.08203125 C3.41344238 -0.11232422 4.16770508 -0.14261719 4.94482422 -0.17382812 C7.6223966 0.2256408 9.00147567 1.39406402 11.02636719 3.13671875 C-2.41786984 4.00624652 -15.53561272 4.13497167 -28.97363281 3.13671875 C-29.30363281 2.47671875 -29.63363281 1.81671875 -29.97363281 1.13671875 C-25.68208492 0.96689955 -21.39037903 0.80144345 -17.09863281 0.63671875 C-15.89464844 0.58902344 -14.69066406 0.54132813 -13.45019531 0.4921875 C-8.9668493 0.32162542 -4.4818472 0.20606194 0 0 Z " fill="#0E0F12" transform="translate(474.9736328125,265.86328125)"/>
<path d="M0 0 C0.33 0 0.66 0 1 0 C1.33 11.55 1.66 23.1 2 35 C1.67 35 1.34 35 1 35 C0.67 36.98 0.34 38.96 0 41 C-0.33 41 -0.66 41 -1 41 C-1.15387701 27.30494652 -0.6877034 13.67725005 0 0 Z " fill="#34353B" transform="translate(426,375)"/>
<path d="M0 0 C0.33 0.33 0.66 0.66 1 1 C2.99958364 1.04080783 5.00045254 1.04254356 7 1 C7 1.66 7 2.32 7 3 C8.13179688 2.96519531 9.26359375 2.93039062 10.4296875 2.89453125 C11.91144353 2.86639664 13.39321556 2.83909613 14.875 2.8125 C15.62136719 2.78736328 16.36773437 2.76222656 17.13671875 2.73632812 C19.3046875 2.70703125 19.3046875 2.70703125 23 3 C23.66 3.99 24.32 4.98 25 6 C12.8219616 5.53251292 0.95902218 3.20543803 -11 1 C-7.00834894 -1.29982545 -4.50463153 -0.93492352 0 0 Z " fill="#2A2A2E" transform="translate(445,870)"/>
<path d="M0 0 C0.33 0 0.66 0 1 0 C1.33 11.22 1.66 22.44 2 34 C1.67 34 1.34 34 1 34 C0.67 35.98 0.34 37.96 0 40 C-0.33 40 -0.66 40 -1 40 C-1.17678395 26.64299051 -0.62825257 13.34034171 0 0 Z " fill="#323338" transform="translate(428,328)"/>
<path d="M0 0 C9.57 0 19.14 0 29 0 C28.67 0.66 28.34 1.32 28 2 C27.01 2 26.02 2 25 2 C25 2.66 25 3.32 25 4 C24.34 4 23.68 4 23 4 C23 3.34 23 2.68 23 2 C22.01773437 2.01740234 22.01773437 2.01740234 21.015625 2.03515625 C13.9563366 2.10495147 7.02424012 1.68648769 0 1 C0 0.67 0 0.34 0 0 Z " fill="#0D0C0F" transform="translate(484,876)"/>
<path d="M0 0 C0.66 0 1.32 0 2 0 C2 5.28 2 10.56 2 16 C1.67 16 1.34 16 1 16 C0.67 19.3 0.34 22.6 0 26 C-0.33 26 -0.66 26 -1 26 C-1.0292483 22.79168609 -1.04688189 19.58340693 -1.0625 16.375 C-1.07087891 15.47136719 -1.07925781 14.56773437 -1.08789062 13.63671875 C-1.10491895 8.97095711 -0.96829423 4.58986715 0 0 Z " fill="#262629" transform="translate(430,294)"/>
<path d="M0 0 C0.33 0 0.66 0 1 0 C1 9.9 1 19.8 1 30 C2.65 30.33 4.3 30.66 6 31 C4.75 32.5 4.75 32.5 3 34 C1.68 34 0.36 34 -1 34 C-0.67 33.34 -0.34 32.68 0 32 C0 31.67 0 31.34 0 31 C0 20.66666667 0 10.33333333 0 0 Z " fill="#222329" transform="translate(553,462)"/>
<path d="M0 0 C0.66 0.33 1.32 0.66 2 1 C1.46324097 4.85103301 -0.11600923 6.31797587 -3.0625 8.75 C-4.16271484 9.67039063 -4.16271484 9.67039063 -5.28515625 10.609375 C-5.85105469 11.06828125 -6.41695313 11.5271875 -7 12 C-7.66 11.34 -8.32 10.68 -9 10 C-7.8758824 8.70756532 -6.75067408 7.41607925 -5.625 6.125 C-4.99851562 5.40570313 -4.37203125 4.68640625 -3.7265625 3.9453125 C-2.52573166 2.5923402 -1.2791655 1.2791655 0 0 Z " fill="#1F1F23" transform="translate(467,209)"/>
<path d="M0 0 C0.33 0 0.66 0 1 0 C1.67842194 10.68514555 2.15498126 21.28907291 2 32 C1.67 32 1.34 32 1 32 C0.67 30.02 0.34 28.04 0 26 C-0.33 26 -0.66 26 -1 26 C-0.67 17.42 -0.34 8.84 0 0 Z " fill="#36353B" transform="translate(504,367)"/>
<path d="M0 0 C-3.14591933 2.80045623 -5.067064 3.35261589 -9.25 3.1875 C-10.14203125 3.16042969 -11.0340625 3.13335937 -11.953125 3.10546875 C-12.62859375 3.07066406 -13.3040625 3.03585938 -14 3 C-14 2.34 -14 1.68 -14 1 C-16.31 1 -18.62 1 -21 1 C-21 0.67 -21 0.34 -21 0 C-13.80827843 -1.07875823 -7.21805755 -0.7938642 0 0 Z " fill="#26262A" transform="translate(588,147)"/>
<path d="M0 0 C0.33 0 0.66 0 1 0 C1.22655901 3.08227709 1.42803465 6.1657016 1.625 9.25 C1.68945312 10.12269531 1.75390625 10.99539063 1.8203125 11.89453125 C1.871875 12.73886719 1.9234375 13.58320313 1.9765625 14.453125 C2.02893066 15.22817383 2.08129883 16.00322266 2.13525391 16.80175781 C1.9810467 19.30804237 1.25581508 20.84839873 0 23 C-0.66 22.67 -1.32 22.34 -2 22 C-1.84660156 21.18273437 -1.69320312 20.36546875 -1.53515625 19.5234375 C-0.9322218 15.55375228 -0.65842036 11.63053967 -0.4375 7.625 C-0.39431641 6.88894531 -0.35113281 6.15289062 -0.30664062 5.39453125 C-0.20156201 3.59651932 -0.10037907 1.79828042 0 0 Z " fill="#2D2E32" transform="translate(631,429)"/>
<path d="M0 0 C0.9075 0.33 1.815 0.66 2.75 1 C2.75 1.33 2.75 1.66 2.75 2 C-8.635 1.505 -8.635 1.505 -20.25 1 C-13.98879372 -2.13060314 -6.73283164 -1.92760006 0 0 Z " fill="#131315" transform="translate(534.25,247)"/>
<path d="M0 0 C-3.52971705 2.086142 -6.90369309 2.61493189 -10.9375 3.1875 C-12.14277344 3.36667969 -13.34804688 3.54585937 -14.58984375 3.73046875 C-17.70830102 3.97694475 -20.00111436 3.8023584 -23 3 C-23 2.67 -23 2.34 -23 2 C-15.26940505 0.64290496 -7.85546636 -0.31918373 0 0 Z " fill="#29292C" transform="translate(706,163)"/>
<path d="M0 0 C2.91342112 1.45671056 3.1297737 3.36932238 4.25 6.375 C4.62640625 7.35210938 5.0028125 8.32921875 5.390625 9.3359375 C5.59171875 10.21507812 5.7928125 11.09421875 6 12 C5.01 13.485 5.01 13.485 4 15 C3.34 13.35 2.68 11.7 2 10 C1.34 10 0.68 10 0 10 C-0.33 9.01 -0.66 8.02 -1 7 C-1.33 6.67 -1.66 6.34 -2 6 C-2 5.34 -2 4.68 -2 4 C-1.34 4 -0.68 4 0 4 C0 2.68 0 1.36 0 0 Z " fill="#212124" transform="translate(226,710)"/>
<path d="M0 0 C5.53814367 0.15449757 10.74631862 1.32329318 16 3 C15.01 3.495 15.01 3.495 14 4 C14 4.66 14 5.32 14 6 C12.24859857 5.54705135 10.49892656 5.08741252 8.75 4.625 C7.77546875 4.36976563 6.8009375 4.11453125 5.796875 3.8515625 C3.34162697 3.10401491 1.24382595 2.22876183 -1 1 C-0.67 0.67 -0.34 0.34 0 0 Z " fill="#202024" transform="translate(549,725)"/>
<path d="M0 0 C0.33 0 0.66 0 1 0 C1 8.91 1 17.82 1 27 C-2 24 -2 24 -2.15698242 21.45629883 C-2.05748291 20.46654053 -1.9579834 19.47678223 -1.85546875 18.45703125 C-1.75556641 17.38388672 -1.65566406 16.31074219 -1.55273438 15.20507812 C-1.43220703 14.08552734 -1.31167969 12.96597656 -1.1875 11.8125 C-1.07857422 10.68134766 -0.96964844 9.55019531 -0.85742188 8.38476562 C-0.58601456 5.58809022 -0.29965982 2.79376613 0 0 Z " fill="#0A0A0D" transform="translate(424,449)"/>
<path d="M0 0 C-0.61875 0.28875 -1.2375 0.5775 -1.875 0.875 C-4.13325765 1.93720042 -4.13325765 1.93720042 -6 4 C-6 3.34 -6 2.68 -6 2 C-7.216875 2.33 -8.43375 2.66 -9.6875 3 C-12.87210604 3.80322213 -15.6972843 4.20641973 -19 4 C-14.48966992 -1.34775293 -6.41555603 -1.68830422 0 0 Z " fill="#28282D" transform="translate(599,868)"/>
<path d="M0 0 C2.151422 0.92460278 4.29602475 1.86508737 6.4375 2.8125 C8.22994141 3.59560547 8.22994141 3.59560547 10.05859375 4.39453125 C13 6 13 6 14 9 C8.31497465 7.35433477 3.23318364 4.70967216 -2 2 C-1.34 1.34 -0.68 0.68 0 0 Z " fill="#202024" transform="translate(349,838)"/>
<path d="M0 0 C2.475 0.495 2.475 0.495 5 1 C4.67 10.57 4.34 20.14 4 30 C3.67 30 3.34 30 3 30 C2.98018066 29.16227051 2.96036133 28.32454102 2.93994141 27.46142578 C2.86189388 24.35634166 2.77520365 21.25165461 2.68261719 18.14697266 C2.62545964 16.14113029 2.57831404 14.13501082 2.53125 12.12890625 C2.47324219 10.24365234 2.47324219 10.24365234 2.4140625 8.3203125 C2.3826416 7.15773926 2.3512207 5.99516602 2.31884766 4.79736328 C2.27842131 1.86343518 2.27842131 1.86343518 0 0 Z " fill="#111216" transform="translate(393,453)"/>
<path d="M0 0 C1.0625 1.875 1.0625 1.875 2 4 C1.67 4.66 1.34 5.32 1 6 C0.76641202 8.56081642 0.61836931 11.12005034 0.4765625 13.6875 C0 16 0 16 -3 18 C-3.42765417 11.58518742 -1.85743168 6.11404596 0 0 Z " fill="#212226" transform="translate(224,678)"/>
<path d="M0 0 C5.61 0 11.22 0 17 0 C17 0.33 17 0.66 17 1 C15.35 1 13.7 1 12 1 C11.67 1.99 11.34 2.98 11 4 C7.37 3.67 3.74 3.34 0 3 C0 2.01 0 1.02 0 0 Z " fill="#252529" transform="translate(694,260)"/>
<path d="M0 0 C0.33 0 0.66 0 1 0 C1.33 6.27 1.66 12.54 2 19 C2.66 19.33 3.32 19.66 4 20 C2.625 21.5 2.625 21.5 1 23 C0.34 23 -0.32 23 -1 23 C-0.67 15.41 -0.34 7.82 0 0 Z " fill="#38383D" transform="translate(507,429)"/>
<path d="M0 0 C1.00289062 0.28746094 2.00578125 0.57492187 3.0390625 0.87109375 C3.80992187 1.09925781 4.58078125 1.32742188 5.375 1.5625 C5.375 2.2225 5.375 2.8825 5.375 3.5625 C6.035 3.8925 6.695 4.2225 7.375 4.5625 C5.62470238 4.25167128 3.87477306 3.93876821 2.125 3.625 C0.66320312 3.36396484 0.66320312 3.36396484 -0.828125 3.09765625 C-3.12221795 2.65870271 -5.36791971 2.15901408 -7.625 1.5625 C-7.625 0.9025 -7.625 0.2425 -7.625 -0.4375 C-4.72405209 -1.88797396 -3.06527404 -0.89106803 0 0 Z " fill="#242428" transform="translate(575.625,656.4375)"/>
<path d="M0 0 C0.33 0 0.66 0 1 0 C1.22595954 3.10314787 1.42770896 6.20740807 1.625 9.3125 C1.68945312 10.19357422 1.75390625 11.07464844 1.8203125 11.98242188 C1.871875 12.82998047 1.9234375 13.67753906 1.9765625 14.55078125 C2.02893066 15.33106689 2.08129883 16.11135254 2.13525391 16.9152832 C2 19 2 19 0 22 C-0.94450945 14.48751716 -0.94450945 7.51248284 0 0 Z " fill="#26262A" transform="translate(624,347)"/>
<path d="M0 0 C0 0.66 0 1.32 0 2 C-1.98 2 -3.96 2 -6 2 C-6 2.66 -6 3.32 -6 4 C-7.98 4.33 -9.96 4.66 -12 5 C-12 3.66666667 -12 2.33333333 -12 1 C-7.53763531 -0.80619523 -4.68965706 -1.11658501 0 0 Z " fill="#2E2E32" transform="translate(446,289)"/>
<path d="M0 0 C0.99 0 1.98 0 3 0 C3.103125 0.556875 3.20625 1.11375 3.3125 1.6875 C3.93498888 4.15132842 3.93498888 4.15132842 5.625 6.625 C6.07875 7.40875 6.5325 8.1925 7 9 C6.67 9.66 6.34 10.32 6 11 C5.01 11 4.02 11 3 11 C2.814375 10.1028125 2.814375 10.1028125 2.625 9.1875 C2.04524015 6.73768652 2.04524015 6.73768652 0 4 C0 2.68 0 1.36 0 0 Z " fill="#1F2024" transform="translate(293,727)"/>
<path d="M0 0 C0.99 0.33 1.98 0.66 3 1 C-0.62635206 4.62635206 -2.90842603 5.81802747 -8 7 C-8.66 6.67 -9.32 6.34 -10 6 C-10 5.34 -10 4.68 -10 4 C-8.906875 3.71125 -7.81375 3.4225 -6.6875 3.125 C-2.95986155 2.18106796 -2.95986155 2.18106796 0 0 Z " fill="#202125" transform="translate(403,669)"/>
<path d="M0 0 C0.66 0.33 1.32 0.66 2 1 C-0.45627573 3.631724 -2.55352037 5.81527263 -6 7 C-8.25 6.625 -8.25 6.625 -10 6 C-10 5.34 -10 4.68 -10 4 C-8.9171875 3.8453125 -8.9171875 3.8453125 -7.8125 3.6875 C-4.90447434 3.12539114 -4.90447434 3.12539114 -2.3125 1.375 C-1.549375 0.92125 -0.78625 0.4675 0 0 Z " fill="#242428" transform="translate(650,457)"/>
<path d="M0 0 C2.72426311 2.35277269 3.8141763 4.62496331 5 8 C4.34 8.66 3.68 9.32 3 10 C2.01 9.67 1.02 9.34 0 9 C-1.125 3.375 -1.125 3.375 0 0 Z M0 4 C1 6 1 6 1 6 Z M1 6 C2 8 2 8 2 8 Z " fill="#201F23" transform="translate(233,727)"/>
<path d="M0 0 C-0.99 0.33 -1.98 0.66 -3 1 C-3 1.66 -3 2.32 -3 3 C-4.58226965 3.19627391 -6.16589271 3.38165538 -7.75 3.5625 C-8.63171875 3.66691406 -9.5134375 3.77132812 -10.421875 3.87890625 C-12.88432451 3.99456676 -14.66538064 3.73638695 -17 3 C-15.10614563 2.49255577 -13.20981334 1.99435426 -11.3125 1.5 C-9.72888672 1.08234375 -9.72888672 1.08234375 -8.11328125 0.65625 C-5.28857328 0.0608285 -2.87163292 -0.12786492 0 0 Z " fill="#2F2F34" transform="translate(478,724)"/>
<path d="M0 0 C0.66 0.33 1.32 0.66 2 1 C2 1.99 2 2.98 2 4 C1.01 4 0.02 4 -1 4 C-1.99 5.485 -1.99 5.485 -3 7 C-4.65 6.67 -6.3 6.34 -8 6 C-5.63404067 3.38499232 -3.13950774 1.61000397 0 0 Z " fill="#212126" transform="translate(695,431)"/>
<path d="M0 0 C0.33 0.99 0.66 1.98 1 3 C-2.28491373 5.18994248 -3.83095639 5.35277339 -7.6875 5.625 C-9.17830078 5.73714844 -9.17830078 5.73714844 -10.69921875 5.8515625 C-11.45847656 5.90054687 -12.21773438 5.94953125 -13 6 C-13.33 5.34 -13.66 4.68 -14 4 C-12.02 3.67 -10.04 3.34 -8 3 C-8 2.67 -8 2.34 -8 2 C-6.2984375 1.7834375 -6.2984375 1.7834375 -4.5625 1.5625 C-1.19222799 1.38828522 -1.19222799 1.38828522 0 0 Z " fill="#313136" transform="translate(489,265)"/>
<path d="M0 0 C-3.7559214 3.42931954 -8.23466745 4.56429083 -13 6 C-12 3 -12 3 -8.75 1.3125 C-5.45873369 0.16055679 -3.4127883 -0.31025348 0 0 Z " fill="#212125" transform="translate(659,847)"/>
<path d="M0 0 C0 0.33 0 0.66 0 1 C-1.65 1.33 -3.3 1.66 -5 2 C-4.67 2.66 -4.34 3.32 -4 4 C-5.98 4 -7.96 4 -10 4 C-10 3.67 -10 3.34 -10 3 C-11.65 2.67 -13.3 2.34 -15 2 C-15 1.67 -15 1.34 -15 1 C-9.91913204 0.15318867 -5.15171623 -0.09038099 0 0 Z " fill="#303136" transform="translate(495,722)"/>
<path d="M0 0 C1.98 0.495 1.98 0.495 4 1 C4.63019694 10.17286652 4.63019694 10.17286652 2 13.625 C1.34 14.07875 0.68 14.5325 0 15 C0 12 0 12 1 9 C1.3053818 4.345203 1.3053818 4.345203 0 0 Z " fill="#2B2C30" transform="translate(746,686)"/>
<path d="M0 0 C0.99 0.33 1.98 0.66 3 1 C4.28571429 9.42857143 4.28571429 9.42857143 3 14 C2.67 14 2.34 14 2 14 C-0.29612756 4.58997722 -0.29612756 4.58997722 0 0 Z " fill="#27272C" transform="translate(564,630)"/>
<path d="M0 0 C-2.97 0 -5.94 0 -9 0 C-9 0.66 -9 1.32 -9 2 C-11.31 2 -13.62 2 -16 2 C-14.28213877 -0.0964688 -13.29422076 -0.92789656 -10.625 -1.58203125 C-9.75875 -1.65808594 -8.8925 -1.73414063 -8 -1.8125 C-6.700625 -1.94591797 -6.700625 -1.94591797 -5.375 -2.08203125 C-3 -2 -3 -2 0 0 Z " fill="#2F2F32" transform="translate(489,290)"/>
<path d="M0 0 C-1.45449401 1.0055761 -2.91372443 2.00430435 -4.375 3 C-5.59316406 3.8353125 -5.59316406 3.8353125 -6.8359375 4.6875 C-9 6 -9 6 -11 6 C-9.98502564 2.95507691 -9.4178943 1.9701361 -7 0 C-3.98519175 -1.13055309 -3.16829698 -1.05609899 0 0 Z " fill="#1F2023" transform="translate(736,251)"/>
<path d="M0 0 C3.32368224 1.10789408 3.61563093 1.48436217 5.25 4.375 C5.60578125 4.98085938 5.9615625 5.58671875 6.328125 6.2109375 C7 8 7 8 6 11 C5.34 9.68 4.68 8.36 4 7 C3.34 7 2.68 7 2 7 C0.5393715 4.35261084 0 3.10551666 0 0 Z " fill="#242427" transform="translate(718,741)"/>
<path d="M0 0 C0.33 0 0.66 0 1 0 C0.50130596 5.36891879 -0.02227532 10.69235173 -1 16 C-1.33 16 -1.66 16 -2 16 C-3.28571429 7.42857143 -3.28571429 7.42857143 -2 4 C-1.34 4 -0.68 4 0 4 C0 2.68 0 1.36 0 0 Z " fill="#2D2D33" transform="translate(456,627)"/>
<path d="M0 0 C0.66 0 1.32 0 2 0 C2.33 1.32 2.66 2.64 3 4 C0.525 5.485 0.525 5.485 -2 7 C-2 6.34 -2 5.68 -2 5 C-2.99 4.67 -3.98 4.34 -5 4 C-4.360625 3.71125 -3.72125 3.4225 -3.0625 3.125 C-0.84793921 2.17176549 -0.84793921 2.17176549 0 0 Z " fill="#212226" transform="translate(676,833)"/>
<path d="M0 0 C3.67230705 3.07999946 4.56802365 5.2482602 5 10 C4.21625 9.195625 3.4325 8.39125 2.625 7.5625 C0.28017144 5.01309583 0.28017144 5.01309583 -2 4 C-1.34 2.68 -0.68 1.36 0 0 Z " fill="#201F23" transform="translate(243,746)"/>
<path d="M0 0 C0.33 0 0.66 0 1 0 C1.3690205 10.55808656 1.3690205 10.55808656 -1 15 C-1.33 15 -1.66 15 -2 15 C-1.85879286 13.06215735 -1.71187127 11.12473045 -1.5625 9.1875 C-1.48128906 8.10855469 -1.40007812 7.02960937 -1.31640625 5.91796875 C-1 3 -1 3 0 0 Z " fill="#100F12" transform="translate(457,616)"/>
<path d="M0 0 C0.66 0.33 1.32 0.66 2 1 C2 1.99 2 2.98 2 4 C-1.3 4.66 -4.6 5.32 -8 6 C-5.36435544 3.36435544 -3.27929831 1.68169144 0 0 Z " fill="#252529" transform="translate(341,480)"/>
<path d="M0 0 C0.33 0 0.66 0 1 0 C1.33 6.27 1.66 12.54 2 19 C1.67 19 1.34 19 1 19 C1 17.35 1 15.7 1 14 C0.34 14 -0.32 14 -1 14 C-0.67 9.38 -0.34 4.76 0 0 Z " fill="#343439" transform="translate(626,370)"/>
<path d="M0 0 C0.33 0.66 0.66 1.32 1 2 C0.34 2 -0.32 2 -1 2 C-1.268125 2.928125 -1.53625 3.85625 -1.8125 4.8125 C-2.91148371 7.76240366 -3.62418561 9.05615186 -6 11 C-5.62671065 5.64951939 -4.0042343 3.49087093 0 0 Z " fill="#121315" transform="translate(536,170)"/>
<path d="M0 0 C1.58246707 -0.08153933 3.16616273 -0.13943557 4.75 -0.1875 C6.07257812 -0.23970703 6.07257812 -0.23970703 7.421875 -0.29296875 C10.44671583 0.05076316 11.75583602 1.00227459 14 3 C12.22844346 2.88570603 10.45773771 2.75816963 8.6875 2.625 C7.70136719 2.55539063 6.71523438 2.48578125 5.69921875 2.4140625 C3 2 3 2 0 0 Z " fill="#131315" transform="translate(630,168)"/>
<path d="M0 0 C0.33 0 0.66 0 1 0 C1 7.59 1 15.18 1 23 C0.67 23 0.34 23 0 23 C0 15.41 0 7.82 0 0 Z " fill="#323238" transform="translate(256,584)"/>
<path d="M0 0 C0.66 0.33 1.32 0.66 2 1 C0.9375 2.9375 0.9375 2.9375 -1 5 C-4.6875 5.75 -4.6875 5.75 -8 6 C-5.63404067 3.38499232 -3.13950774 1.61000397 0 0 Z " fill="#212125" transform="translate(317,494)"/>
<path d="M0 0 C0.66 0.33 1.32 0.66 2 1 C1 4 1 4 -1.3125 5.25 C-4.16597407 6.04631835 -5.24802325 5.8214856 -8 5 C-6.71475739 4.13619741 -5.42157581 3.28419631 -4.125 2.4375 C-3.04605469 1.72400391 -3.04605469 1.72400391 -1.9453125 0.99609375 C-1.30335938 0.66738281 -0.66140625 0.33867187 0 0 Z " fill="#202024" transform="translate(486,477)"/>
<path d="M0 0 C0.33 0.66 0.66 1.32 1 2 C0.22265625 3.9453125 0.22265625 3.9453125 -0.9375 6.125 C-1.31777344 6.84945312 -1.69804688 7.57390625 -2.08984375 8.3203125 C-2.39019531 8.87460938 -2.69054687 9.42890625 -3 10 C-3.97591583 6.61682513 -3.85856655 4.4342662 -3 1 C-2.01 0.67 -1.02 0.34 0 0 Z " fill="#222226" transform="translate(752,226)"/>
<path d="M0 0 C4.51617599 -0.07654536 8.59085217 -0.10228696 13 1 C9.93882432 3.62386487 9.26826873 4 5 4 C5 3.34 5 2.68 5 2 C3.35 1.67 1.7 1.34 0 1 C0 0.67 0 0.34 0 0 Z " fill="#2E2F33" transform="translate(535,723)"/>
<path d="M0 0 C0.66 0.33 1.32 0.66 2 1 C-0.48952921 3.66735273 -2.63408134 5.55746343 -6 7 C-6.66 6.34 -7.32 5.68 -8 5 C-6.71475739 4.13619741 -5.42157581 3.28419631 -4.125 2.4375 C-3.04605469 1.72400391 -3.04605469 1.72400391 -1.9453125 0.99609375 C-1.30335938 0.66738281 -0.66140625 0.33867187 0 0 Z " fill="#202024" transform="translate(293,508)"/>
<path d="M0 0 C0.66 0.33 1.32 0.66 2 1 C-1.07999946 4.67230705 -3.2482602 5.56802365 -8 6 C-5.63404067 3.38499232 -3.13950774 1.61000397 0 0 Z " fill="#212225" transform="translate(377,459)"/>
<path d="M0 0 C0.6875 1.6875 0.6875 1.6875 1 4 C-0.25 6.6875 -0.25 6.6875 -2 9 C-2.99 9.33 -3.98 9.66 -5 10 C-3.66511872 6.40608886 -2.03977277 3.24509304 0 0 Z " fill="#202023" transform="translate(358,804)"/>
<path d="M0 0 C0.66 0.33 1.32 0.66 2 1 C0.68 2.65 -0.64 4.3 -2 6 C-3.65 5.67 -5.3 5.34 -7 5 C-4.702779 3.25728062 -2.40133271 1.60088848 0 0 Z " fill="#202024" transform="translate(624,472)"/>
<path d="M0 0 C1.32 0.66 2.64 1.32 4 2 C3.01 3.485 3.01 3.485 2 5 C0.02 4.34 -1.96 3.68 -4 3 C-2.68 2.01 -1.36 1.02 0 0 Z M-3 4 C-1 5 -1 5 -1 5 Z " fill="#222327" transform="translate(534,450)"/>
<path d="M0 0 C5.94 0.99 5.94 0.99 12 2 C12 2.33 12 2.66 12 3 C5.64772727 4.22159091 5.64772727 4.22159091 2.625 3.1875 C1 2 1 2 0 0 Z " fill="#2B2B2F" transform="translate(623,165)"/>
<path d="M0 0 C0 0.66 0 1.32 0 2 C0.99 2.33 1.98 2.66 3 3 C1.741875 2.87625 0.48375 2.7525 -0.8125 2.625 C-1.87404297 2.52058594 -1.87404297 2.52058594 -2.95703125 2.4140625 C-5 2 -5 2 -8 0 C-4.71023192 -1.09658936 -3.28696233 -0.79953138 0 0 Z " fill="#29292D" transform="translate(422,865)"/>
<path d="M0 0 C0 0.66 0 1.32 0 2 C-3.3 2.66 -6.6 3.32 -10 4 C-9.34 3.67 -8.68 3.34 -8 3 C-8 2.34 -8 1.68 -8 1 C-5.10765685 0.17361624 -3.11257569 0 0 0 Z " fill="#26262A" transform="translate(614,863)"/>
<path d="M0 0 C3.24208567 0.35049575 4.61527704 0.56221181 6.8125 3.0625 C7.204375 3.701875 7.59625 4.34125 8 5 C7.34 5.66 6.68 6.32 6 7 C5.38125 6.360625 4.7625 5.72125 4.125 5.0625 C2.17402388 2.96116416 2.17402388 2.96116416 0 2 C0 1.34 0 0.68 0 0 Z " fill="#222226" transform="translate(256,770)"/>
<path d="M0 0 C4.3177458 0.50797009 8.03302114 1.19682779 12 3 C12 3.33 12 3.66 12 4 C9.69 4 7.38 4 5 4 C5 3.34 5 2.68 5 2 C3.35 1.67 1.7 1.34 0 1 C0 0.67 0 0.34 0 0 Z " fill="#111012" transform="translate(589,661)"/>
<path d="M0 0 C2.97 0.495 2.97 0.495 6 1 C6.33 1.99 6.66 2.98 7 4 C4.03 3.67 1.06 3.34 -2 3 C-1.34 2.67 -0.68 2.34 0 2 C0 1.34 0 0.68 0 0 Z " fill="#262629" transform="translate(675,637)"/>
<path d="M0 0 C0.99 0.33 1.98 0.66 3 1 C2.34 2.32 1.68 3.64 1 5 C0.34 4.67 -0.32 4.34 -1 4 C-0.67 2.68 -0.34 1.36 0 0 Z " fill="#1F2025" transform="translate(529,179)"/>
<path d="M0 0 C0.33 1.32 0.66 2.64 1 4 C1.66 4 2.32 4 3 4 C3.625 6.3125 3.625 6.3125 4 9 C3.01 10.485 3.01 10.485 2 12 C0.70756464 7.8803623 -0.26252625 4.33168317 0 0 Z " fill="#27272B" transform="translate(222,697)"/>
<path d="M0 0 C0.33 0 0.66 0 1 0 C0.67 3.3 0.34 6.6 0 10 C-0.33 8.68 -0.66 7.36 -1 6 C-1.66 6 -2.32 6 -3 6 C-3 4.68 -3 3.36 -3 2 C-2.34 2 -1.68 2 -1 2 C-0.67 1.34 -0.34 0.68 0 0 Z " fill="#2C2C31" transform="translate(453,643)"/>
<path d="M0 0 C0.66 0 1.32 0 2 0 C1.34 3.63 0.68 7.26 0 11 C-0.33 11 -0.66 11 -1 11 C-2.23076923 4.6 -2.23076923 4.6 -1.0625 1.5625 C-0.711875 1.046875 -0.36125 0.53125 0 0 Z " fill="#26262A" transform="translate(459,610)"/>
<path d="M0 0 C-2.64850992 2.64850992 -5.66206447 4.33103223 -9 6 C-8.6875 4.125 -8.6875 4.125 -8 2 C-4.77208445 -0.1519437 -3.71599191 -0.20086443 0 0 Z " fill="#212125" transform="translate(470,604)"/>
<path d="M0 0 C2.31 1.98 4.62 3.96 7 6 C5.68 6.33 4.36 6.66 3 7 C1.68 5.35 0.36 3.7 -1 2 C-0.67 1.34 -0.34 0.68 0 0 Z " fill="#212125" transform="translate(774,664)"/>
<path d="M0 0 C1.32 0.99 2.64 1.98 4 3 C3.38722388 5.96175123 2.74627478 7.38058783 1 10 C0.67 6.7 0.34 3.4 0 0 Z " fill="#2B2C30" transform="translate(562,619)"/>
<path d="M0 0 C0.99 0.33 1.98 0.66 3 1 C1.35 2.65 -0.3 4.3 -2 6 C-4 5 -4 5 -5 3 C-2.6875 1.4375 -2.6875 1.4375 0 0 Z " fill="#222227" transform="translate(415,518)"/>
<path d="M0 0 C1.65 0.33 3.3 0.66 5 1 C0.25 5 0.25 5 -2 5 C-1.34 3.35 -0.68 1.7 0 0 Z " fill="#212125" transform="translate(561,488)"/>
<path d="M0 0 C0.66 0.33 1.32 0.66 2 1 C2 1.99 2 2.98 2 4 C0.02 4.66 -1.96 5.32 -4 6 C-4.33 5.34 -4.66 4.68 -5 4 C-3.35 2.68 -1.7 1.36 0 0 Z " fill="#1F1F23" transform="translate(626,243)"/>
<path d="M0 0 C2.97 0.99 5.94 1.98 9 3 C5 5 5 5 2.8125 4.3125 C1 3 1 3 0 0 Z " fill="#29292C" transform="translate(614,161)"/>
<path d="M0 0 C5.61 0 11.22 0 17 0 C17 0.33 17 0.66 17 1 C11.39 1 5.78 1 0 1 C0 0.67 0 0.34 0 0 Z " fill="#302F34" transform="translate(487,879)"/>
<path d="M0 0 C0.66 0.33 1.32 0.66 2 1 C1.67 2.65 1.34 4.3 1 6 C-0.65 6.33 -2.3 6.66 -4 7 C-3.34 6.67 -2.68 6.34 -2 6 C-2 5.34 -2 4.68 -2 4 C-1.34 4 -0.68 4 0 4 C0 2.68 0 1.36 0 0 Z " fill="#252529" transform="translate(450,652)"/>
<path d="M0 0 C0.33 0 0.66 0 1 0 C1 5.61 1 11.22 1 17 C0.67 17 0.34 17 0 17 C0 11.39 0 5.78 0 0 Z " fill="#323339" transform="translate(256,616)"/>
<path d="M0 0 C2.86724686 0.57344937 3.8614515 0.8614515 6 3 C5.67 3.99 5.34 4.98 5 6 C5 5.34 5 4.68 5 4 C2.03 3.505 2.03 3.505 -1 3 C-0.67 2.01 -0.34 1.02 0 0 Z " fill="#222225" transform="translate(617,324)"/>
<path d="M0 0 C5.28 0 10.56 0 16 0 C16 0.33 16 0.66 16 1 C11.05 1.33 6.1 1.66 1 2 C0.67 1.34 0.34 0.68 0 0 Z " fill="#323136" transform="translate(502,192)"/>
<path d="M0 0 C0.33 0 0.66 0 1 0 C1 4.62 1 9.24 1 14 C0.67 14 0.34 14 0 14 C0 9.38 0 4.76 0 0 Z " fill="#313137" transform="translate(256,552)"/>
<path d="M0 0 C2.64 0 5.28 0 8 0 C6 2 6 2 2.875 2.125 C1.451875 2.063125 1.451875 2.063125 0 2 C0 1.34 0 0.68 0 0 Z " fill="#2F2E33" transform="translate(472,878)"/>
<path d="M0 0 C1.98 0 3.96 0 6 0 C5.67 0.66 5.34 1.32 5 2 C3.35 1.67 1.7 1.34 0 1 C0 0.67 0 0.34 0 0 Z " fill="#2F2E34" transform="translate(544,878)"/>
<path d="M0 0 C2.64 0 5.28 0 8 0 C8 0.33 8 0.66 8 1 C5.36 1 2.72 1 0 1 C0 0.67 0 0.34 0 0 Z " fill="#38373D" transform="translate(542,606)"/>
<path d="M0 0 C0.33 0 0.66 0 1 0 C1 2.64 1 5.28 1 8 C0.67 8 0.34 8 0 8 C0 5.36 0 2.72 0 0 Z " fill="#313137" transform="translate(256,567)"/>
<path d="M0 0 C0.33 0 0.66 0 1 0 C1 2.31 1 4.62 1 7 C0.67 7 0.34 7 0 7 C0 4.69 0 2.38 0 0 Z " fill="#32323A" transform="translate(256,608)"/>
<path d="M0 0 C0.33 0 0.66 0 1 0 C1 2.31 1 4.62 1 7 C0.67 7 0.34 7 0 7 C0 4.69 0 2.38 0 0 Z " fill="#34353B" transform="translate(420,481)"/>
<path d="M0 0 C2.31 0 4.62 0 7 0 C7 0.33 7 0.66 7 1 C4.69 1 2.38 1 0 1 C0 0.67 0 0.34 0 0 Z " fill="#36373C" transform="translate(583,321)"/>
<path d="M0 0 C0.33 0.99 0.66 1.98 1 3 C0.01 3.495 0.01 3.495 -1 4 C-0.67 2.68 -0.34 1.36 0 0 Z " fill="#2B2D32" transform="translate(279,788)"/>
<path d="M0 0 C0.33 0 0.66 0 1 0 C1 1.98 1 3.96 1 6 C0.67 6 0.34 6 0 6 C0 4.02 0 2.04 0 0 Z " fill="#333238" transform="translate(256,634)"/>
<path d="M0 0 C0.66 0 1.32 0 2 0 C1.67 0.99 1.34 1.98 1 3 C0.67 2.01 0.34 1.02 0 0 Z " fill="#35353B" transform="translate(360,651)"/>
<path d="M0 0 C1.65 0 3.3 0 5 0 C5 0.33 5 0.66 5 1 C3.35 1 1.7 1 0 1 C0 0.67 0 0.34 0 0 Z " fill="#36363A" transform="translate(472,606)"/>
<path d="M0 0 C1.65 0 3.3 0 5 0 C5 0.33 5 0.66 5 1 C3.35 1 1.7 1 0 1 C0 0.67 0 0.34 0 0 Z " fill="#38363C" transform="translate(527,605)"/>
<path d="M0 0 C1.65 0 3.3 0 5 0 C5 0.33 5 0.66 5 1 C3.35 1 1.7 1 0 1 C0 0.67 0 0.34 0 0 Z " fill="#36363B" transform="translate(489,605)"/>
<path d="M0 0 C0.33 0 0.66 0 1 0 C1 1.65 1 3.3 1 5 C0.67 5 0.34 5 0 5 C0 3.35 0 1.7 0 0 Z " fill="#313138" transform="translate(256,544)"/>
<path d="M0 0 C0.33 0 0.66 0 1 0 C1 1.65 1 3.3 1 5 C0.67 5 0.34 5 0 5 C0 3.35 0 1.7 0 0 Z " fill="#302F35" transform="translate(256,538)"/>
<path d="M0 0 C0.99 0.33 1.98 0.66 3 1 C2.01 1.33 1.02 1.66 0 2 C0 1.34 0 0.68 0 0 Z " fill="#33333A" transform="translate(602,469)"/>
<path d="M0 0 C0.33 0 0.66 0 1 0 C1 1.65 1 3.3 1 5 C0.67 5 0.34 5 0 5 C0 3.35 0 1.7 0 0 Z " fill="#313137" transform="translate(424,377)"/>
<path d="M0 0 C4 1 4 1 4 1 Z " fill="#313035" transform="translate(595,870)"/>
<path d="M0 0 C0.99 0.33 1.98 0.66 3 1 C2.01 1 1.02 1 0 1 C0 0.67 0 0.34 0 0 Z " fill="#36363D" transform="translate(482,605)"/>
<path d="M0 0 C1 4 1 4 1 4 Z " fill="#323136" transform="translate(503,313)"/>
<path d="M0 0 C4 1 4 1 4 1 Z " fill="#313134" transform="translate(576,144)"/>
<path d="M0 0 C3 1 3 1 3 1 Z " fill="#323135" transform="translate(465,877)"/>
<path d="M0 0 C0.66 0 1.32 0 2 0 C1.67 0.66 1.34 1.32 1 2 C0.67 1.34 0.34 0.68 0 0 Z " fill="#2E2E33" transform="translate(354,845)"/>
<path d="M0 0 C3 1 3 1 3 1 Z " fill="#2B2B30" transform="translate(270,791)"/>
<path d="M0 0 C0.66 0.66 1.32 1.32 2 2 C1.34 2 0.68 2 0 2 C0 1.34 0 0.68 0 0 Z " fill="#2F2F35" transform="translate(265,782)"/>
<path d="M0 0 C0.33 0.66 0.66 1.32 1 2 C0.34 1.67 -0.32 1.34 -1 1 C-0.67 0.67 -0.34 0.34 0 0 Z " fill="#313035" transform="translate(738,780)"/>
<path d="M0 0 C3 1 3 1 3 1 Z " fill="#39393E" transform="translate(538,721)"/>
<path d="M0 0 C3 1 3 1 3 1 Z " fill="#3A3A40" transform="translate(492,720)"/>
<path d="" fill="#2D2D32" transform="translate(0,0)"/>
<path d="M0 0 C0.66 0.66 1.32 1.32 2 2 C1.34 2 0.68 2 0 2 C0 1.34 0 0.68 0 0 Z " fill="#343439" transform="translate(353,645)"/>
<path d="" fill="#35363D" transform="translate(0,0)"/>
<path d="" fill="#34343A" transform="translate(0,0)"/>
<path d="M0 0 C3 1 3 1 3 1 Z " fill="#39393E" transform="translate(538,606)"/>
<path d="M0 0 C3 1 3 1 3 1 Z " fill="#38373E" transform="translate(497,605)"/>
<path d="M0 0 C0.99 0.495 0.99 0.495 2 1 C1.01 1.495 1.01 1.495 0 2 C0 1.34 0 0.68 0 0 Z " fill="#303036" transform="translate(304,498)"/>
<path d="M0 0 C0.33 0.66 0.66 1.32 1 2 C0.34 1.67 -0.32 1.34 -1 1 C-0.67 0.67 -0.34 0.34 0 0 Z " fill="#36343A" transform="translate(592,475)"/>
<path d="M0 0 C0.66 0 1.32 0 2 0 C1.67 0.66 1.34 1.32 1 2 C0.67 1.34 0.34 0.68 0 0 Z " fill="#343238" transform="translate(632,464)"/>
<path d="M0 0 C0.99 0.495 0.99 0.495 2 1 C1.01 1.495 1.01 1.495 0 2 C0 1.34 0 0.68 0 0 Z " fill="#343238" transform="translate(630,402)"/>
<path d="" fill="#37373C" transform="translate(0,0)"/>
<path d="" fill="#36363C" transform="translate(0,0)"/>
<path d="M0 0 C3 1 3 1 3 1 Z " fill="#38383E" transform="translate(577,321)"/>
<path d="M0 0 C3 1 3 1 3 1 Z " fill="#35353A" transform="translate(576,267)"/>
<path d="M0 0 C3 1 3 1 3 1 Z " fill="#35343A" transform="translate(651,169)"/>
<path d="M0 0 C2 1 2 1 2 1 Z " fill="#302F36" transform="translate(553,877)"/>
<path d="M0 0 C2 1 2 1 2 1 Z " fill="#2D2C32" transform="translate(455,875)"/>
<path d="M0 0 C2 1 2 1 2 1 Z " fill="#2F2E34" transform="translate(603,870)"/>
<path d="M0 0 C2 1 2 1 2 1 Z " fill="#322F35" transform="translate(427,870)"/>
<path d="M0 0 C2 1 2 1 2 1 Z " fill="#303034" transform="translate(624,862)"/>
<path d="M0 0 C2 1 2 1 2 1 Z " fill="#2C2C31" transform="translate(678,832)"/>
<path d="" fill="#333339" transform="translate(0,0)"/>
<path d="M0 0 C2 1 2 1 2 1 Z " fill="#34333A" transform="translate(369,784)"/>
<path d="" fill="#2F2F34" transform="translate(0,0)"/>
<path d="" fill="#333439" transform="translate(0,0)"/>
<path d="" fill="#2E2D33" transform="translate(0,0)"/>
<path d="" fill="#333339" transform="translate(0,0)"/>
<path d="M0 0 C2 1 2 1 2 1 Z " fill="#34373B" transform="translate(414,744)"/>
<path d="M0 0 C2 1 2 1 2 1 Z " fill="#353339" transform="translate(428,737)"/>
<path d="M0 0 C2 1 2 1 2 1 Z " fill="#36343C" transform="translate(424,736)"/>
<path d="" fill="#3A3C40" transform="translate(0,0)"/>
<path d="M0 0 C2 1 2 1 2 1 Z " fill="#2F2E34" transform="translate(224,721)"/>
<path d="M0 0 C2 1 2 1 2 1 Z " fill="#3A393E" transform="translate(529,720)"/>
<path d="M0 0 C2 1 2 1 2 1 Z " fill="#39393E" transform="translate(601,668)"/>
<path d="M0 0 C2 1 2 1 2 1 Z " fill="#333338" transform="translate(750,648)"/>
<path d="M0 0 C2 1 2 1 2 1 Z " fill="#343339" transform="translate(253,648)"/>
<path d="M0 0 C2 1 2 1 2 1 Z " fill="#35333A" transform="translate(250,648)"/>
<path d="M0 0 C2 1 2 1 2 1 Z " fill="#35353A" transform="translate(553,607)"/>
<path d="M0 0 C2 1 2 1 2 1 Z " fill="#37363B" transform="translate(402,521)"/>
<path d="M0 0 C2 1 2 1 2 1 Z " fill="#32333A" transform="translate(422,512)"/>
<path d="M0 0 C2 1 2 1 2 1 Z " fill="#32353B" transform="translate(561,506)"/>
<path d="" fill="#35343A" transform="translate(0,0)"/>
<path d="" fill="#302F35" transform="translate(0,0)"/>
<path d="" fill="#36343B" transform="translate(0,0)"/>
<path d="" fill="#33333B" transform="translate(0,0)"/>
<path d="M0 0 C2 1 2 1 2 1 Z " fill="#333138" transform="translate(464,488)"/>
<path d="M0 0 C2 1 2 1 2 1 Z " fill="#343339" transform="translate(571,487)"/>
<path d="M0 0 C2 1 2 1 2 1 Z " fill="#35343B" transform="translate(603,481)"/>
<path d="" fill="#34333B" transform="translate(0,0)"/>
<path d="M0 0 C2 1 2 1 2 1 Z " fill="#303236" transform="translate(346,475)"/>
<path d="M0 0 C2 1 2 1 2 1 Z " fill="#333137" transform="translate(621,472)"/>
<path d="M0 0 C2 1 2 1 2 1 Z " fill="#333338" transform="translate(351,472)"/>
<path d="M0 0 C2 1 2 1 2 1 Z " fill="#313138" transform="translate(365,464)"/>
<path d="M0 0 C2 1 2 1 2 1 Z " fill="#333339" transform="translate(648,456)"/>
<path d="M0 0 C2 1 2 1 2 1 Z " fill="#34343B" transform="translate(660,449)"/>
<path d="M0 0 C2 1 2 1 2 1 Z " fill="#323036" transform="translate(704,424)"/>
<path d="M0 0 C2 1 2 1 2 1 Z " fill="#333236" transform="translate(700,424)"/>
<path d="M0 0 C2 1 2 1 2 1 Z " fill="#343238" transform="translate(630,400)"/>
<path d="" fill="#303338" transform="translate(0,0)"/>
<path d="" fill="#37363E" transform="translate(0,0)"/>
<path d="" fill="#37383C" transform="translate(0,0)"/>
<path d="" fill="#363539" transform="translate(0,0)"/>
<path d="M0 0 C2 1 2 1 2 1 Z " fill="#333338" transform="translate(607,321)"/>
<path d="M0 0 C2 1 2 1 2 1 Z " fill="#35363B" transform="translate(602,321)"/>
<path d="M0 0 C2 1 2 1 2 1 Z " fill="#37363A" transform="translate(594,321)"/>
<path d="M0 0 C2 1 2 1 2 1 Z " fill="#36353A" transform="translate(591,321)"/>
<path d="M0 0 C2 1 2 1 2 1 Z " fill="#38393C" transform="translate(567,321)"/>
<path d="" fill="#34343B" transform="translate(0,0)"/>
<path d="M0 0 C2 1 2 1 2 1 Z " fill="#37373D" transform="translate(484,271)"/>
<path d="M0 0 C2 1 2 1 2 1 Z " fill="#313137" transform="translate(709,263)"/>
<path d="M0 0 C2 1 2 1 2 1 Z " fill="#333238" transform="translate(683,262)"/>
<path d="M0 0 C2 1 2 1 2 1 Z " fill="#37363C" transform="translate(554,261)"/>
<path d="M0 0 C2 1 2 1 2 1 Z " fill="#333439" transform="translate(543,255)"/>
<path d="" fill="#35363B" transform="translate(0,0)"/>
<path d="M0 0 C2 1 2 1 2 1 Z " fill="#36363A" transform="translate(635,246)"/>
<path d="M0 0 C2 1 2 1 2 1 Z " fill="#35363A" transform="translate(632,246)"/>
<path d="M0 0 C2 1 2 1 2 1 Z " fill="#313337" transform="translate(489,195)"/>
<path d="" fill="#2D2C31" transform="translate(0,0)"/>
<path d="M0 0 C2 1 2 1 2 1 Z " fill="#2E2F35" transform="translate(549,153)"/>
<path d="" fill="#020202" transform="translate(0,0)"/>
<path d="" fill="#322F36" transform="translate(0,0)"/>
<path d="" fill="#353238" transform="translate(0,0)"/>
<path d="" fill="#323036" transform="translate(0,0)"/>
<path d="" fill="#312E35" transform="translate(0,0)"/>
<path d="" fill="#313036" transform="translate(0,0)"/>
<path d="" fill="#303034" transform="translate(0,0)"/>
<path d="" fill="#302D31" transform="translate(0,0)"/>
<path d="" fill="#2D2D32" transform="translate(0,0)"/>
<path d="" fill="#313135" transform="translate(0,0)"/>
<path d="" fill="#2F2F32" transform="translate(0,0)"/>
<path d="" fill="#2E2F33" transform="translate(0,0)"/>
<path d="" fill="#303037" transform="translate(0,0)"/>
<path d="" fill="#302F32" transform="translate(0,0)"/>
<path d="" fill="#2E2E33" transform="translate(0,0)"/>
<path d="" fill="#302E34" transform="translate(0,0)"/>
<path d="" fill="#312F36" transform="translate(0,0)"/>
<path d="" fill="#2D2C31" transform="translate(0,0)"/>
<path d="" fill="#313136" transform="translate(0,0)"/>
<path d="" fill="#303135" transform="translate(0,0)"/>
<path d="" fill="#2D2D32" transform="translate(0,0)"/>
<path d="" fill="#313034" transform="translate(0,0)"/>
<path d="" fill="#312E36" transform="translate(0,0)"/>
<path d="" fill="#313336" transform="translate(0,0)"/>
<path d="" fill="#302F34" transform="translate(0,0)"/>
<path d="" fill="#302E34" transform="translate(0,0)"/>
<path d="" fill="#312F36" transform="translate(0,0)"/>
<path d="" fill="#2D3035" transform="translate(0,0)"/>
<path d="" fill="#2E2E33" transform="translate(0,0)"/>
<path d="" fill="#2D2F31" transform="translate(0,0)"/>
<path d="" fill="#312F36" transform="translate(0,0)"/>
<path d="" fill="#302F36" transform="translate(0,0)"/>
<path d="" fill="#2E2D33" transform="translate(0,0)"/>
<path d="" fill="#2B2B31" transform="translate(0,0)"/>
<path d="" fill="#2E2F36" transform="translate(0,0)"/>
<path d="" fill="#2C2C2F" transform="translate(0,0)"/>
<path d="" fill="#2F2D33" transform="translate(0,0)"/>
<path d="" fill="#2F3035" transform="translate(0,0)"/>
<path d="" fill="#312F35" transform="translate(0,0)"/>
<path d="" fill="#343439" transform="translate(0,0)"/>
<path d="" fill="#34363A" transform="translate(0,0)"/>
<path d="" fill="#333439" transform="translate(0,0)"/>
<path d="" fill="#363439" transform="translate(0,0)"/>
<path d="" fill="#38373C" transform="translate(0,0)"/>
<path d="" fill="#2B2B31" transform="translate(0,0)"/>
<path d="" fill="#2C2E34" transform="translate(0,0)"/>
<path d="" fill="#2C2D31" transform="translate(0,0)"/>
<path d="" fill="#2D2E32" transform="translate(0,0)"/>
<path d="" fill="#302F33" transform="translate(0,0)"/>
<path d="" fill="#323136" transform="translate(0,0)"/>
<path d="" fill="#323335" transform="translate(0,0)"/>
<path d="" fill="#2F2E34" transform="translate(0,0)"/>
<path d="" fill="#2E2B30" transform="translate(0,0)"/>
<path d="" fill="#2E2E31" transform="translate(0,0)"/>
<path d="" fill="#363238" transform="translate(0,0)"/>
<path d="" fill="#302F33" transform="translate(0,0)"/>
<path d="" fill="#323335" transform="translate(0,0)"/>
<path d="" fill="#312F37" transform="translate(0,0)"/>
<path d="" fill="#2F2E33" transform="translate(0,0)"/>
<path d="" fill="#35343A" transform="translate(0,0)"/>
<path d="" fill="#2F2F36" transform="translate(0,0)"/>
<path d="" fill="#36373C" transform="translate(0,0)"/>
<path d="" fill="#37353B" transform="translate(0,0)"/>
<path d="" fill="#35353A" transform="translate(0,0)"/>
<path d="" fill="#2F2D31" transform="translate(0,0)"/>
<path d="" fill="#2F2F33" transform="translate(0,0)"/>
<path d="" fill="#38363A" transform="translate(0,0)"/>
<path d="" fill="#343538" transform="translate(0,0)"/>
<path d="" fill="#303035" transform="translate(0,0)"/>
<path d="" fill="#34343B" transform="translate(0,0)"/>
<path d="" fill="#2E3037" transform="translate(0,0)"/>
<path d="" fill="#2E2E33" transform="translate(0,0)"/>
<path d="" fill="#35353B" transform="translate(0,0)"/>
<path d="" fill="#2E2E33" transform="translate(0,0)"/>
<path d="" fill="#37373B" transform="translate(0,0)"/>
<path d="" fill="#353739" transform="translate(0,0)"/>
<path d="" fill="#303036" transform="translate(0,0)"/>
<path d="" fill="#36363B" transform="translate(0,0)"/>
<path d="" fill="#303038" transform="translate(0,0)"/>
<path d="" fill="#35363C" transform="translate(0,0)"/>
<path d="" fill="#343539" transform="translate(0,0)"/>
<path d="" fill="#3A373F" transform="translate(0,0)"/>
<path d="" fill="#383A3E" transform="translate(0,0)"/>
<path d="" fill="#39393F" transform="translate(0,0)"/>
<path d="" fill="#3A393E" transform="translate(0,0)"/>
<path d="" fill="#37383C" transform="translate(0,0)"/>
<path d="" fill="#37373C" transform="translate(0,0)"/>
<path d="" fill="#303234" transform="translate(0,0)"/>
<path d="" fill="#2F2E35" transform="translate(0,0)"/>
<path d="" fill="#323137" transform="translate(0,0)"/>
<path d="" fill="#2F2F34" transform="translate(0,0)"/>
<path d="" fill="#383940" transform="translate(0,0)"/>
<path d="" fill="#3B3A40" transform="translate(0,0)"/>
<path d="" fill="#393A3E" transform="translate(0,0)"/>
<path d="" fill="#383A40" transform="translate(0,0)"/>
<path d="" fill="#303035" transform="translate(0,0)"/>
<path d="" fill="#39373E" transform="translate(0,0)"/>
<path d="" fill="#3D3D42" transform="translate(0,0)"/>
<path d="" fill="#3E3D44" transform="translate(0,0)"/>
<path d="" fill="#393941" transform="translate(0,0)"/>
<path d="" fill="#35393C" transform="translate(0,0)"/>
<path d="" fill="#2E2D35" transform="translate(0,0)"/>
<path d="" fill="#36353B" transform="translate(0,0)"/>
<path d="" fill="#36353B" transform="translate(0,0)"/>
<path d="" fill="#35363C" transform="translate(0,0)"/>
<path d="" fill="#303035" transform="translate(0,0)"/>
<path d="" fill="#2D2F34" transform="translate(0,0)"/>
<path d="" fill="#35373D" transform="translate(0,0)"/>
<path d="" fill="#2F2F32" transform="translate(0,0)"/>
<path d="" fill="#313235" transform="translate(0,0)"/>
<path d="" fill="#2F3034" transform="translate(0,0)"/>
<path d="" fill="#323236" transform="translate(0,0)"/>
<path d="" fill="#37383B" transform="translate(0,0)"/>
<path d="" fill="#343538" transform="translate(0,0)"/>
<path d="" fill="#2D2D31" transform="translate(0,0)"/>
<path d="" fill="#2E2E32" transform="translate(0,0)"/>
<path d="" fill="#36353D" transform="translate(0,0)"/>
<path d="" fill="#2F3036" transform="translate(0,0)"/>
<path d="" fill="#3B3A3F" transform="translate(0,0)"/>
<path d="" fill="#39393E" transform="translate(0,0)"/>
<path d="" fill="#353236" transform="translate(0,0)"/>
<path d="" fill="#303035" transform="translate(0,0)"/>
<path d="" fill="#2F2F35" transform="translate(0,0)"/>
<path d="" fill="#35353B" transform="translate(0,0)"/>
<path d="" fill="#37373E" transform="translate(0,0)"/>
<path d="" fill="#39373E" transform="translate(0,0)"/>
<path d="" fill="#37363E" transform="translate(0,0)"/>
<path d="" fill="#37363E" transform="translate(0,0)"/>
<path d="" fill="#36373F" transform="translate(0,0)"/>
<path d="" fill="#34353B" transform="translate(0,0)"/>
<path d="" fill="#39383E" transform="translate(0,0)"/>
<path d="" fill="#36353B" transform="translate(0,0)"/>
<path d="" fill="#37373E" transform="translate(0,0)"/>
<path d="" fill="#35363A" transform="translate(0,0)"/>
<path d="" fill="#3D3B41" transform="translate(0,0)"/>
<path d="" fill="#313339" transform="translate(0,0)"/>
<path d="" fill="#2F3035" transform="translate(0,0)"/>
<path d="" fill="#3B3C43" transform="translate(0,0)"/>
<path d="" fill="#333338" transform="translate(0,0)"/>
<path d="" fill="#36383D" transform="translate(0,0)"/>
<path d="" fill="#38363E" transform="translate(0,0)"/>
<path d="" fill="#343339" transform="translate(0,0)"/>
<path d="" fill="#36353D" transform="translate(0,0)"/>
<path d="" fill="#35323A" transform="translate(0,0)"/>
<path d="" fill="#393940" transform="translate(0,0)"/>
<path d="" fill="#36333B" transform="translate(0,0)"/>
<path d="" fill="#37363D" transform="translate(0,0)"/>
<path d="" fill="#38383D" transform="translate(0,0)"/>
<path d="" fill="#39383D" transform="translate(0,0)"/>
<path d="" fill="#39373D" transform="translate(0,0)"/>
<path d="" fill="#37353E" transform="translate(0,0)"/>
<path d="" fill="#36363A" transform="translate(0,0)"/>
<path d="" fill="#36373E" transform="translate(0,0)"/>
<path d="" fill="#36363B" transform="translate(0,0)"/>
<path d="" fill="#323137" transform="translate(0,0)"/>
<path d="" fill="#35363C" transform="translate(0,0)"/>
<path d="" fill="#35343A" transform="translate(0,0)"/>
<path d="" fill="#313135" transform="translate(0,0)"/>
<path d="" fill="#302F36" transform="translate(0,0)"/>
<path d="" fill="#393940" transform="translate(0,0)"/>
<path d="" fill="#3A3A3F" transform="translate(0,0)"/>
<path d="" fill="#39363B" transform="translate(0,0)"/>
<path d="" fill="#333539" transform="translate(0,0)"/>
<path d="" fill="#36363C" transform="translate(0,0)"/>
<path d="" fill="#36363A" transform="translate(0,0)"/>
<path d="" fill="#36343D" transform="translate(0,0)"/>
<path d="" fill="#35343C" transform="translate(0,0)"/>
<path d="" fill="#2F2F34" transform="translate(0,0)"/>
<path d="" fill="#35363B" transform="translate(0,0)"/>
<path d="" fill="#323236" transform="translate(0,0)"/>
<path d="" fill="#333438" transform="translate(0,0)"/>
<path d="" fill="#3A3840" transform="translate(0,0)"/>
<path d="" fill="#35353B" transform="translate(0,0)"/>
<path d="" fill="#36353A" transform="translate(0,0)"/>
<path d="" fill="#363339" transform="translate(0,0)"/>
<path d="" fill="#363539" transform="translate(0,0)"/>
<path d="" fill="#39393E" transform="translate(0,0)"/>
<path d="" fill="#38363D" transform="translate(0,0)"/>
<path d="" fill="#37383F" transform="translate(0,0)"/>
<path d="" fill="#37363C" transform="translate(0,0)"/>
<path d="" fill="#36363C" transform="translate(0,0)"/>
<path d="" fill="#38373D" transform="translate(0,0)"/>
<path d="" fill="#343239" transform="translate(0,0)"/>
<path d="" fill="#36373D" transform="translate(0,0)"/>
<path d="" fill="#323237" transform="translate(0,0)"/>
<path d="" fill="#36373C" transform="translate(0,0)"/>
<path d="" fill="#39383E" transform="translate(0,0)"/>
<path d="" fill="#39383E" transform="translate(0,0)"/>
<path d="" fill="#3A393C" transform="translate(0,0)"/>
<path d="" fill="#323238" transform="translate(0,0)"/>
<path d="" fill="#2F3035" transform="translate(0,0)"/>
<path d="" fill="#38363C" transform="translate(0,0)"/>
<path d="" fill="#34353B" transform="translate(0,0)"/>
<path d="" fill="#38383E" transform="translate(0,0)"/>
<path d="" fill="#35343A" transform="translate(0,0)"/>
<path d="" fill="#302F35" transform="translate(0,0)"/>
<path d="" fill="#343238" transform="translate(0,0)"/>
<path d="" fill="#38373D" transform="translate(0,0)"/>
<path d="" fill="#36383E" transform="translate(0,0)"/>
<path d="" fill="#36363B" transform="translate(0,0)"/>
<path d="" fill="#35353C" transform="translate(0,0)"/>
<path d="" fill="#2F2E33" transform="translate(0,0)"/>
<path d="" fill="#2E2E33" transform="translate(0,0)"/>
<path d="" fill="#333539" transform="translate(0,0)"/>
<path d="" fill="#36353B" transform="translate(0,0)"/>
<path d="" fill="#303138" transform="translate(0,0)"/>
<path d="" fill="#323336" transform="translate(0,0)"/>
<path d="" fill="#2F2E35" transform="translate(0,0)"/>
<path d="" fill="#323139" transform="translate(0,0)"/>
<path d="" fill="#313033" transform="translate(0,0)"/>
<path d="" fill="#2E2E33" transform="translate(0,0)"/>
<path d="" fill="#33323A" transform="translate(0,0)"/>
<path d="" fill="#36383C" transform="translate(0,0)"/>
<path d="" fill="#313138" transform="translate(0,0)"/>
<path d="" fill="#35343B" transform="translate(0,0)"/>
<path d="" fill="#35373D" transform="translate(0,0)"/>
<path d="" fill="#37353C" transform="translate(0,0)"/>
<path d="" fill="#36343C" transform="translate(0,0)"/>
<path d="" fill="#35343B" transform="translate(0,0)"/>
<path d="" fill="#35343C" transform="translate(0,0)"/>
<path d="" fill="#39363D" transform="translate(0,0)"/>
<path d="" fill="#302F33" transform="translate(0,0)"/>
<path d="" fill="#37363C" transform="translate(0,0)"/>
<path d="" fill="#37363D" transform="translate(0,0)"/>
<path d="" fill="#323239" transform="translate(0,0)"/>
<path d="" fill="#343638" transform="translate(0,0)"/>
<path d="" fill="#35333A" transform="translate(0,0)"/>
<path d="" fill="#323035" transform="translate(0,0)"/>
<path d="" fill="#33333C" transform="translate(0,0)"/>
<path d="" fill="#333438" transform="translate(0,0)"/>
<path d="" fill="#34323A" transform="translate(0,0)"/>
<path d="" fill="#303137" transform="translate(0,0)"/>
<path d="" fill="#37353B" transform="translate(0,0)"/>
<path d="" fill="#34363A" transform="translate(0,0)"/>
<path d="" fill="#34343B" transform="translate(0,0)"/>
<path d="" fill="#35353A" transform="translate(0,0)"/>
<path d="" fill="#35363B" transform="translate(0,0)"/>
<path d="" fill="#35363B" transform="translate(0,0)"/>
<path d="" fill="#35353D" transform="translate(0,0)"/>
<path d="" fill="#36363C" transform="translate(0,0)"/>
<path d="" fill="#2E3035" transform="translate(0,0)"/>
<path d="" fill="#36333A" transform="translate(0,0)"/>
<path d="" fill="#353539" transform="translate(0,0)"/>
<path d="" fill="#313337" transform="translate(0,0)"/>
<path d="" fill="#303035" transform="translate(0,0)"/>
<path d="" fill="#343039" transform="translate(0,0)"/>
<path d="" fill="#323039" transform="translate(0,0)"/>
<path d="" fill="#34343A" transform="translate(0,0)"/>
<path d="" fill="#343339" transform="translate(0,0)"/>
<path d="" fill="#37363C" transform="translate(0,0)"/>
<path d="" fill="#37383C" transform="translate(0,0)"/>
<path d="" fill="#35343B" transform="translate(0,0)"/>
<path d="" fill="#343239" transform="translate(0,0)"/>
<path d="" fill="#37353C" transform="translate(0,0)"/>
<path d="" fill="#35353B" transform="translate(0,0)"/>
<path d="" fill="#36363B" transform="translate(0,0)"/>
<path d="" fill="#33343A" transform="translate(0,0)"/>
<path d="" fill="#37353E" transform="translate(0,0)"/>
<path d="" fill="#36363B" transform="translate(0,0)"/>
<path d="" fill="#333037" transform="translate(0,0)"/>
<path d="" fill="#35353C" transform="translate(0,0)"/>
<path d="" fill="#33343A" transform="translate(0,0)"/>
<path d="" fill="#35343B" transform="translate(0,0)"/>
<path d="" fill="#35353B" transform="translate(0,0)"/>
<path d="" fill="#37373B" transform="translate(0,0)"/>
<path d="" fill="#38363C" transform="translate(0,0)"/>
<path d="" fill="#35343E" transform="translate(0,0)"/>
<path d="" fill="#35343C" transform="translate(0,0)"/>
<path d="" fill="#37393E" transform="translate(0,0)"/>
<path d="" fill="#33373D" transform="translate(0,0)"/>
<path d="" fill="#33333A" transform="translate(0,0)"/>
<path d="" fill="#323136" transform="translate(0,0)"/>
<path d="" fill="#313336" transform="translate(0,0)"/>
<path d="" fill="#323438" transform="translate(0,0)"/>
<path d="" fill="#39383E" transform="translate(0,0)"/>
<path d="" fill="#343539" transform="translate(0,0)"/>
<path d="" fill="#38353D" transform="translate(0,0)"/>
<path d="" fill="#333538" transform="translate(0,0)"/>
<path d="" fill="#36363B" transform="translate(0,0)"/>
<path d="" fill="#333338" transform="translate(0,0)"/>
<path d="" fill="#333236" transform="translate(0,0)"/>
<path d="" fill="#323238" transform="translate(0,0)"/>
<path d="" fill="#35343A" transform="translate(0,0)"/>
<path d="" fill="#303435" transform="translate(0,0)"/>
<path d="" fill="#333237" transform="translate(0,0)"/>
<path d="" fill="#222329" transform="translate(0,0)"/>
<path d="" fill="#35363C" transform="translate(0,0)"/>
<path d="" fill="#2F2F36" transform="translate(0,0)"/>
<path d="" fill="#36343C" transform="translate(0,0)"/>
<path d="" fill="#323136" transform="translate(0,0)"/>
<path d="" fill="#36333B" transform="translate(0,0)"/>
<path d="" fill="#363639" transform="translate(0,0)"/>
<path d="" fill="#322F33" transform="translate(0,0)"/>
<path d="" fill="#333439" transform="translate(0,0)"/>
<path d="" fill="#35333A" transform="translate(0,0)"/>
<path d="" fill="#333139" transform="translate(0,0)"/>
<path d="" fill="#313034" transform="translate(0,0)"/>
<path d="" fill="#353439" transform="translate(0,0)"/>
<path d="" fill="#313036" transform="translate(0,0)"/>
<path d="" fill="#38373D" transform="translate(0,0)"/>
<path d="" fill="#343338" transform="translate(0,0)"/>
<path d="" fill="#303134" transform="translate(0,0)"/>
<path d="" fill="#37393D" transform="translate(0,0)"/>
<path d="" fill="#303036" transform="translate(0,0)"/>
<path d="" fill="#313036" transform="translate(0,0)"/>
<path d="" fill="#313336" transform="translate(0,0)"/>
<path d="" fill="#37373E" transform="translate(0,0)"/>
<path d="" fill="#36363B" transform="translate(0,0)"/>
<path d="" fill="#37383B" transform="translate(0,0)"/>
<path d="" fill="#35343A" transform="translate(0,0)"/>
<path d="" fill="#34363A" transform="translate(0,0)"/>
<path d="" fill="#353539" transform="translate(0,0)"/>
<path d="" fill="#35373A" transform="translate(0,0)"/>
<path d="" fill="#39393C" transform="translate(0,0)"/>
<path d="" fill="#383940" transform="translate(0,0)"/>
<path d="" fill="#383A3D" transform="translate(0,0)"/>
<path d="" fill="#323138" transform="translate(0,0)"/>
<path d="" fill="#35353C" transform="translate(0,0)"/>
<path d="" fill="#36383E" transform="translate(0,0)"/>
<path d="" fill="#313137" transform="translate(0,0)"/>
<path d="" fill="#393840" transform="translate(0,0)"/>
<path d="" fill="#38393D" transform="translate(0,0)"/>
<path d="" fill="#303132" transform="translate(0,0)"/>
<path d="" fill="#37373E" transform="translate(0,0)"/>
<path d="" fill="#38373E" transform="translate(0,0)"/>
<path d="" fill="#38393F" transform="translate(0,0)"/>
<path d="" fill="#37363D" transform="translate(0,0)"/>
<path d="" fill="#36343A" transform="translate(0,0)"/>
<path d="" fill="#35353B" transform="translate(0,0)"/>
<path d="" fill="#39373D" transform="translate(0,0)"/>
<path d="" fill="#38373D" transform="translate(0,0)"/>
<path d="" fill="#36353B" transform="translate(0,0)"/>
<path d="" fill="#353539" transform="translate(0,0)"/>
<path d="" fill="#353339" transform="translate(0,0)"/>
<path d="" fill="#36353B" transform="translate(0,0)"/>
<path d="" fill="#38383D" transform="translate(0,0)"/>
<path d="" fill="#333439" transform="translate(0,0)"/>
<path d="" fill="#35333B" transform="translate(0,0)"/>
<path d="" fill="#383439" transform="translate(0,0)"/>
<path d="" fill="#353337" transform="translate(0,0)"/>
<path d="" fill="#35343D" transform="translate(0,0)"/>
<path d="" fill="#35363C" transform="translate(0,0)"/>
<path d="" fill="#2F3035" transform="translate(0,0)"/>
<path d="" fill="#37363C" transform="translate(0,0)"/>
<path d="" fill="#2E2F34" transform="translate(0,0)"/>
<path d="" fill="#303036" transform="translate(0,0)"/>
<path d="" fill="#39383D" transform="translate(0,0)"/>
<path d="" fill="#373B3D" transform="translate(0,0)"/>
<path d="" fill="#36353B" transform="translate(0,0)"/>
<path d="" fill="#35333C" transform="translate(0,0)"/>
<path d="" fill="#323036" transform="translate(0,0)"/>
<path d="" fill="#323037" transform="translate(0,0)"/>
<path d="" fill="#2E2E31" transform="translate(0,0)"/>
<path d="" fill="#2D2D33" transform="translate(0,0)"/>
<path d="" fill="#2E2C33" transform="translate(0,0)"/>
<path d="" fill="#312F35" transform="translate(0,0)"/>
<path d="" fill="#2F2F34" transform="translate(0,0)"/>
<path d="" fill="#2F2F35" transform="translate(0,0)"/>
<path d="" fill="#2D2F31" transform="translate(0,0)"/>
<path d="" fill="#2D2E32" transform="translate(0,0)"/>
<path d="" fill="#2E2F34" transform="translate(0,0)"/>
<path d="" fill="#302F34" transform="translate(0,0)"/>
<path d="" fill="#333339" transform="translate(0,0)"/>
<path d="" fill="#2C2E31" transform="translate(0,0)"/>
<path d="" fill="#2C2B31" transform="translate(0,0)"/>
<path d="" fill="#2D2E32" transform="translate(0,0)"/>
<path d="" fill="#303034" transform="translate(0,0)"/>
<path d="" fill="#333438" transform="translate(0,0)"/>
<path d="" fill="#312E33" transform="translate(0,0)"/>
<path d="" fill="#2E3134" transform="translate(0,0)"/>
<path d="" fill="#333138" transform="translate(0,0)"/>
<path d="" fill="#313035" transform="translate(0,0)"/>
<path d="" fill="#333437" transform="translate(0,0)"/>
<path d="" fill="#333437" transform="translate(0,0)"/>
<path d="" fill="#323236" transform="translate(0,0)"/>
<path d="" fill="#333438" transform="translate(0,0)"/>
<path d="" fill="#2D2D30" transform="translate(0,0)"/>
<path d="" fill="#333339" transform="translate(0,0)"/>
<path d="" fill="#2C2B32" transform="translate(0,0)"/>
<path d="" fill="#2E2C32" transform="translate(0,0)"/>
<path d="" fill="#2D3232" transform="translate(0,0)"/>
<path d="" fill="#2C2D32" transform="translate(0,0)"/>
<path d="" fill="#2D2E33" transform="translate(0,0)"/>
<path d="" fill="#2D2D31" transform="translate(0,0)"/>
<path d="" fill="#312F36" transform="translate(0,0)"/>
<path d="" fill="#2D2D32" transform="translate(0,0)"/>
<path d="" fill="#2D2C33" transform="translate(0,0)"/>
<path d="" fill="#323436" transform="translate(0,0)"/>
<path d="" fill="#323337" transform="translate(0,0)"/>
<path d="" fill="#303033" transform="translate(0,0)"/>
<path d="" fill="#323135" transform="translate(0,0)"/>
<path d="" fill="#323134" transform="translate(0,0)"/>
</svg>
